<svg xmlns="http://www.w3.org/2000/svg" width="85" height="60" viewBox="0 0 85 60"><path fill-rule="evenodd" clip-rule="evenodd" fill="#1F1F1F" d="M84.15 26.4v6.35c0 2.833-.15 5.967-.45 9.4-.133 1.7-.267 3.117-.4 4.25l-.15.95c-.167.767-.367 1.517-.6 2.25-.667 2.367-1.533 4.083-2.6 5.15-1.367 1.4-2.967 2.383-4.8 2.95-.633.2-1.316.333-2.05.4-.767.1-1.3.167-1.6.2-4.9.367-11.283.617-19.15.75-2.434.034-4.883.067-7.35.1h-2.95c-3.633-.05-7.55-.05-11.75-.15-8.433-.167-14.05-.383-16.85-.65-.067-.033-.667-.117-1.8-.25-.9-.133-1.683-.283-2.35-.45-2.066-.533-3.783-1.5-5.15-2.9-1.033-1.067-1.9-2.783-2.6-5.15-.233-.7-.45-1.5-.55-2.25l-.2-.95c-.133-1.133-.267-2.55-.4-4.25-.267-3.45-.4-6.55-.4-9.4v-6.35c0-2.833.133-5.95.4-9.35l.4-4.25c.167-.966.417-2.05.75-3.25.7-2.333 1.567-4.033 2.6-5.1 1.367-1.434 2.967-2.434 4.8-3 .633-.167 1.333-.3 2.1-.4.4-.066.917-.133 1.55-.2 4.9-.333 11.283-.567 19.15-.7 3.9-.05 7.35-.15 10.25-.15l3 .05c2.467 0 4.9 0 7.4.1 7.833.1 14.2.4 19.1.7.3 0 .8.1 1.6.2.733.1 1.4.2 2 .4 1.833.6 3.4 1.6 4.8 3 1.066 1.1 1.9 2.8 2.6 5.1.367 1.2.6 2.3.8 3.25l.4 4.25c.3 3.35.5 6.55.5 9.35zm-50.85 15l22.7-11.8-22.7-11.85v23.65z"/><path fill-rule="evenodd" clip-rule="evenodd" fill="#fff" d="M33.3 41.4v-23.6l22.7 11.8z"/></svg>