<svg xmlns="http://www.w3.org/2000/svg" viewBox="0 0 144 144" enable-background="new 0 0 144 144"><circle fill="#FCB515" cx="71.9" cy="72.2" r="54.7"/><g fill="#1A3560"><path d="M115.3 28.7c-11.6-11.6-27-18-43.4-18s-31.8 6.4-43.4 18c-23.9 23.9-23.9 62.9 0 86.8 11.6 11.6 27 18 43.4 18s31.8-6.4 43.4-18c23.9-23.9 23.9-62.8 0-86.8zm-9.1 77.8c-9.2 9.2-21.3 14.2-34.3 14.2-13 0-25.1-5-34.3-14.2-18.9-18.9-18.9-49.7 0-68.6 9.2-9.2 21.3-14.2 34.3-14.2 13 0 25.1 5 34.3 14.2 4.7 4.7 8.2 10 10.5 15.8.7 1.7 1.9 5.8.3 9-1.2 2.5-4 3-5.5 3.1H86.6c-.9 0-2.2-.2-3.5-.6-1.1-.3-2-1-2.5-1.4-4.6-4.4-11.8-4.3-16.3.2-4.6 4.6-4.6 11.9 0 16.5 4.5 4.5 11.7 4.6 16.3.2.5-.4 1.4-1.1 2.6-1.5 1.3-.4 2.6-.5 3.5-.6h24.9c1.5.1 4.3.6 5.5 3.1 1.5 3.1.4 7-.3 8.8-2.4 5.8-5.9 11.3-10.6 16zM88.6 88.8c-9.2 9.2-24.2 9.2-33.4 0s-9.2-24.2 0-33.4 24.2-9.2 33.4 0c2.5 2.5 6.6 2.5 9.1 0s2.5-6.6 0-9.1c-14.2-14.2-37.4-14.2-51.6 0-14.2 14.2-14.2 37.4 0 51.6 7.1 7.1 16.5 10.7 25.8 10.7s18.7-3.6 25.8-10.7c2.5-2.5 2.5-6.6 0-9.1s-6.6-2.5-9.1 0z"/></g></svg>