<?xml version="1.0" encoding="utf-8"?>
<!-- Generator: Adobe Illustrator 16.0.0, SVG Export Plug-In . SVG Version: 6.00 Build 0)  -->
<!DOCTYPE svg PUBLIC "-//W3C//DTD SVG 1.1//EN" "http://www.w3.org/Graphics/SVG/1.1/DTD/svg11.dtd">
<svg version="1.1" id="Layer_1" xmlns="http://www.w3.org/2000/svg" xmlns:xlink="http://www.w3.org/1999/xlink" x="0px" y="0px"
	 width="190.739px" height="24.13px" viewBox="0 0 190.739 24.13" enable-background="new 0 0 190.739 24.13" xml:space="preserve">
<g>
	<path fill="#F0A91E" d="M15.364,4.642c-1.232-0.784-3.08-1.344-4.929-1.344c-3.808,0-6.859,2.828-6.859,8.008
		c0,4.928,2.744,7.924,6.916,7.924c1.903,0,3.668-0.588,4.844-1.428l0.28,1.092c-1.176,0.784-3.024,1.4-5.152,1.4
		c-4.984,0-8.092-3.472-8.092-8.988c0-5.544,3.416-9.072,8.12-9.072c2.268,0,4.116,0.728,5.235,1.4L15.364,4.642z"/>
	<path fill="#F0A91E" d="M34.096,20.014h-1.204l-2.044-5.46h-8.26l-2.044,5.46h-1.176l6.691-17.5h1.456L34.096,20.014z M26.76,3.55
		l-3.752,9.94h7.42L26.76,3.55z"/>
	<path fill="#F0A91E" d="M38.771,20.014v-17.5h1.176v16.408h8.849v1.092H38.771z"/>
	<path fill="#FFFFFF" d="M65.959,6.434c-1.399-0.924-2.911-1.4-4.592-1.4c-3.416,0-5.684,2.352-5.684,6.16
		c0,3.864,2.212,6.3,5.74,6.3c1.792,0,3.5-0.672,4.787-1.568l0.645,3.136c-1.4,0.84-3.584,1.372-5.572,1.372
		c-5.376,0-9.044-3.388-9.044-9.128c0-5.6,3.668-9.212,9.128-9.212c2.044,0,4.145,0.532,5.656,1.372L65.959,6.434z"/>
	<path fill="#FFFFFF" d="M72.595,20.014v-17.5h11.929v2.884h-8.568v4.396h7.028v2.884h-7.028v4.452h8.568v2.884H72.595z"/>
	<path fill="#FFFFFF" d="M102.359,2.514h3.248v17.668h-3.641l-8.372-12.88v12.712h-3.248v-17.5h3.725l8.288,12.74V2.514z"/>
	<path fill="#FFFFFF" d="M119.972,5.51v14.504h-3.388V5.51h-5.853V2.514h15.092V5.51H119.972z"/>
	<path fill="#FFFFFF" d="M134.362,20.014h-3.416v-17.5c0,0,6.188,0,6.133,0c4.424,0,6.775,2.1,6.775,5.32
		c0,2.492-1.399,4.228-3.78,5.04l4.593,7.14h-3.893l-3.892-6.412l-2.521,0.168V20.014z M136.883,11.026
		c2.1-0.112,3.472-1.064,3.472-2.968c0-1.82-1.372-2.688-3.808-2.688c-0.028,0-2.212,0-2.212,0v5.712L136.883,11.026z"/>
	<path fill="#FFFFFF" d="M164.49,20.014h-3.443l-1.456-4.144h-7.056l-1.429,4.144h-3.443l6.384-17.5h4.144L164.49,20.014z
		 M156.091,5.454l-2.66,7.588h5.292L156.091,5.454z"/>
	<path fill="#FFFFFF" d="M169.139,20.014v-17.5h3.416v14.504h7.896v2.996H169.139z"/>
</g>
</svg>
