<?xml version="1.0" encoding="UTF-8" ?>
<!DOCTYPE svg PUBLIC "-//W3C//DTD SVG 1.1//EN" "http://www.w3.org/Graphics/SVG/1.1/DTD/svg11.dtd">
<svg width="60pt" height="42pt" viewBox="0 0 60 42" version="1.1" xmlns="http://www.w3.org/2000/svg">
<path fill="#fefefe" d=" M 0.00 0.00 L 22.12 0.00 C 16.57 0.62 10.74 -0.27 5.38 1.52 C 0.11 4.04 0.62 10.89 0.00 15.78 L 0.00 0.00 Z" />
<path fill="#282928" d=" M 22.12 0.00 L 45.45 0.00 L 41.38 0.25 C 46.29 1.18 52.66 -1.07 56.71 2.87 C 59.89 6.44 59.57 11.62 60.00 16.07 L 60.00 26.57 C 59.61 30.55 59.68 34.89 57.37 38.34 C 55.68 40.65 52.68 41.31 49.98 41.42 C 37.34 42.14 24.67 42.06 12.03 41.54 C 8.75 41.29 4.79 41.17 2.64 38.28 C 0.17 34.57 0.43 29.81 0.00 25.56 L 0.00 15.78 C 0.62 10.89 0.11 4.04 5.38 1.52 C 10.74 -0.27 16.57 0.62 22.12 0.00 Z" />
<path fill="#fefefe" d=" M 45.45 0.00 L 60.00 0.00 L 60.00 16.07 C 59.57 11.62 59.89 6.44 56.71 2.87 C 52.66 -1.07 46.29 1.18 41.38 0.25 L 45.45 0.00 Z" />
<path fill="#fefefe" d=" M 23.84 12.00 C 29.16 14.81 34.40 17.80 39.89 20.27 C 34.67 23.33 29.16 25.87 23.83 28.74 C 23.85 23.16 23.83 17.58 23.84 12.00 Z" />
<path fill="#fefefe" d=" M 57.37 38.34 C 59.68 34.89 59.61 30.55 60.00 26.57 L 60.00 42.00 L 0.00 42.00 L 0.00 25.56 C 0.43 29.81 0.17 34.57 2.64 38.28 C 4.79 41.17 8.75 41.29 12.03 41.54 C 24.67 42.06 37.34 42.14 49.98 41.42 C 52.68 41.31 55.68 40.65 57.37 38.34 Z" />
</svg>
