<svg xmlns="http://www.w3.org/2000/svg" width="50" height="50" viewBox="0 0 50 50"><path fill="#003262" d="M50 25.002c0 13.807-11.192 24.998-25.002 24.998-13.805 0-24.998-11.191-24.998-25 0-13.807 11.193-25 24.998-25 13.808 0 25.002 11.195 25.002 25.002z"/><path fill="#FDB515" d="M25.029 1.248c-13.042 0-23.619 10.574-23.619 23.619 0 13.043 10.577 23.619 23.619 23.619 13.046 0 23.621-10.576 23.621-23.619 0-13.045-10.575-23.619-23.621-23.619zm0 44.856c-11.727 0-21.234-9.509-21.234-21.236s9.507-21.232 21.234-21.232c11.729 0 21.235 9.506 21.235 21.232.001 11.727-9.505 21.236-21.235 21.236z"/><path fill="#fff" d="M13.863 36.388l-.922.655-.58-.881 1.656-1.076h1.146v4.879h-1.301l.001-3.577zm7.583 3.465c-.37.09-.783.195-1.446.195-1.3 0-2.803-.657-2.803-2.5 0-1.698 1.188-2.544 2.795-2.544.499 0 .979.111 1.446.25l-.105 1.056c-.418-.229-.824-.342-1.27-.342-.923 0-1.523.671-1.523 1.579 0 .958.677 1.537 1.627 1.537.426 0 .86-.112 1.217-.252l.062 1.021zm3.494-1.853h-1.225l.629-1.906h.014l.582 1.906zm-3.229 1.965h1.321l.385-1.041h1.83l.363 1.041h1.426l-1.879-4.878h-1.594l-1.852 4.878zm7.171-3.955h.342c.496 0 .951.084.951.537 0 .555-.531.566-.951.566h-.342v-1.103zm-1.301 3.955h1.301v-1.93h.273c.48 0 .65.211.915 1.049l.278.881h1.354l-.473-1.329c-.246-.593-.272-.964-.693-1.075v-.013c.629-.146.937-.58.937-1.23 0-.84-.705-1.229-1.571-1.229h-2.32l-.001 4.876zm6.067-3.913h.502c.95 0 1.515.503 1.515 1.473 0 .974-.544 1.478-1.515 1.478h-.503l.001-2.951zm-1.301 3.913h1.774c1.664 0 2.888-.637 2.888-2.46 0-1.888-1.188-2.418-2.888-2.418h-1.774v4.878z"/><path fill="#FDB515" d="M37.91 31.625c-.521 0-.94.422-.94.94s.42.94.94.94c.519 0 .94-.422.94-.94s-.421-.94-.94-.94zm0 1.713c-.427 0-.772-.346-.772-.771s.347-.771.772-.771c.425 0 .772.345.772.771.001.427-.347.771-.772.771zm.503-.289h-.33l-.25-.393h-.002v.393h-.264v-1.018h.395c.201 0 .354.094.354.313 0 .14-.079.262-.224.286l.321.419zm-.581-.561h.025c.087 0 .185-.017.185-.127 0-.109-.097-.127-.185-.127h-.025v.254zm-.921-3.088c-1.033-.229-2.773-1.621-2.788-4.072.015-.496.042-1.084 0-1.071 2.158-2.479 5.747-8.56 5.79-11.251-.042-1.381-.445-1.916-1.072-1.93-1.943.014-8.214 5.479-8.252 13.289.038 1.164.305 1.967.32 1.93-1.46 1.457-2.639 1.992-3.429 2.035-.362-.043-.497-.336-.537-.75.041-.336 2.827-6.524 2.788-6.86.039-.494-.202-.815-.646-.856h-2.144c-.254.041-.414.336-.428.321-.146.015-.469-.28-1.606-.321-3.041.041-6.605 3.469-6.646 7.823.041.201-.897.735-1.607.752-1.191-.017-2.799-.551-2.787-4.396-.013-5.854 5.694-13.383 9.646-13.396.816.014 1.246.229 1.285.857-.039 1.486-1.755 2.021-2.25 2.037-.978-.016-1.834.548-1.822 1.395-.012.789.576 1.109 1.394 1.069 1.085.04 3.522-2.21 3.537-4.501-.015-1.514-1.005-2.236-2.573-2.252-4.379.016-9.417 4.273-11.68 8.468-1.192 2.157-1.969 4.407-1.93 6.537-.04 4.62 3.739 5.667 5.573 5.681 2.183-.014 3.523-1.085 3.645-1.072.173-.013.334 1.006 2.142.965 1.971.041 2.613-1.138 2.787-1.178.094.04.066 1.219 2.143 1.178 2.586.041 4.219-1.487 5.467-2.465 1.513 2.317 3.469 2.748 4.285 2.895.254.014.522.014.537.107l-.431.213c-1.032.201-3.093.418-4.928.431-3.712-.013-9.873-.443-13.289-.431-5.694-.014-8.158 2.986-8.146 3.752-.012.146.068.254.215.216.55.038 1.863-1.168 6.217-1.181 3.523.013 10.167.309 13.502.32 6.229-.013 8.828-3.334 8.789-3.75.04-.229-.443-.309-1.071-.538zm1.606-15.432c.041.016.067.12.108.215-.041 1.515-3.335 7.14-4.18 8.037.014-3.603 3.55-8.237 4.072-8.252zm-12.644 7.502c.039.095-1.381 3.39-2.039 4.931-.173.469-.604 1.674-1.069 1.715-.549-.041-.791-.471-.75-.965-.041-2.398 2.154-5.988 3.643-6.001.228.01.254.146.215.32z"/></svg>