<svg xmlns="http://www.w3.org/2000/svg" width="256" height="256" viewBox="0 0 256 256"><path fill="#EF7D00" d="M128.002 255.928c-41.778 0-83.555-.019-125.332.056-2.098.004-2.668-.295-2.666-2.57.079-83.557.08-167.11-.004-250.665-.002-2.41.622-2.735 2.825-2.733 83.448.063 166.896.063 250.344.001 2.191-.002 2.833.305 2.831 2.728-.086 83.555-.084 167.109-.006 250.664.002 2.267-.554 2.58-2.661 2.576-41.777-.076-83.554-.057-125.331-.057zm-25.565-125.699c-.198-6.296-.064-12.562 1.276-18.756 4.818-22.263 26.283-27.543 40.95-21.53 6.143 2.519 9.862 7.978 14.136 12.67 4.721 5.183 10.029 9.125 17.209 10.147 6.803.968 13.635.766 20.41.322 5.163-.34 10.401-1.307 14.792-4.54 2.692-1.982 3.925-4.473 3.368-7.994-3.345-21.135-15.829-35.729-33.656-46.06-12.921-7.489-27.586-9.297-42.188-10.166-16.54-.985-32.729 1.333-48.263 7.391-18.468 7.202-31.744 20.12-40.251 37.771-9.507 19.726-10.746 40.57-6.515 61.794 3.648 18.302 12.687 33.67 27.088 45.52 15.89 13.073 34.955 17.612 54.982 18.777 11.196.651 22.361-.149 33.342-2.574 8.113-1.791 16.17-3.735 23.363-8.284 7.071-4.473 13.521-9.612 18.838-16.091 6.177-7.527 10.444-15.985 12.756-25.499 2.317-9.539-2.801-12.812-9.073-14.629-8.45-2.448-17.09-2.194-25.699-1.801-5.497.251-10.769 1.83-15.009 5.596-3.342 2.968-6.562 6.093-9.395 9.572-2.791 3.433-5.942 6.576-10.068 8.165-14.805 5.703-33.805.774-39.911-17.397-2.465-7.339-2.67-14.828-2.482-22.404z"/><path fill-rule="evenodd" clip-rule="evenodd" fill="#D3690C" d="M102.435 130.225c-.186 7.58.019 15.069 2.484 22.408 6.106 18.172 25.106 23.101 39.911 17.397 4.126-1.589 7.277-4.732 10.068-8.165 2.832-3.479 6.053-6.604 9.395-9.572 4.24-3.766 9.512-5.345 15.009-5.596 8.609-.394 17.249-.647 25.699 1.801 6.272 1.816 11.391 5.09 9.073 14.629-2.312 9.514-6.579 17.972-12.756 25.499-5.317 6.479-11.767 11.618-18.838 16.091-7.193 4.549-15.25 6.493-23.363 8.284-10.981 2.425-22.146 3.226-33.342 2.574-20.027-1.165-39.092-5.704-54.982-18.777-14.401-11.85-23.44-27.218-27.088-45.52-4.231-21.224-2.993-42.068 6.515-61.794 8.508-17.651 21.784-30.569 40.251-37.771 15.534-6.058 31.723-8.375 48.263-7.391 14.603.869 29.268 2.677 42.188 10.166 17.827 10.332 30.312 24.925 33.656 46.06.557 3.521-.676 6.012-3.368 7.994-4.391 3.232-9.629 4.2-14.792 4.54-6.775.444-13.607.646-20.41-.322-7.18-1.022-12.488-4.964-17.209-10.147-4.273-4.692-7.993-10.152-14.136-12.67-14.667-6.013-36.132-.733-40.95 21.53-1.341 6.194-1.474 12.46-1.278 18.752zm29.711 83.031c5.12.014 10.235-.158 15.309-.857 12.708-1.752 25.287-3.939 36.23-11.348 13.902-9.41 23.972-21.629 27.88-38.286 1.681-7.166.179-9.605-6.862-11.773-5.876-1.81-11.951-1.781-18.021-2.126-11.771-.668-21.258 3.231-28.364 12.784-1.517 2.038-3.405 3.812-5.218 5.613-2.048 2.036-4.338 3.748-7.008 4.945-17.133 7.683-37.735-.786-43.315-18.636-4.834-15.467-4.809-31.476-.095-46.961 7.652-25.137 41.039-27.312 52.984-11.379 2.225 2.968 4.942 5.582 7.546 8.249 4.003 4.102 8.839 6.583 14.607 7.15 7.458.734 14.896.704 22.3-.55 2.842-.481 5.639-1.17 8.199-2.554 3.474-1.876 4.462-3.686 3.686-7.551-4.718-23.471-19.124-39.103-40.988-47.141-19.948-7.333-40.894-7.986-61.809-4.023-29.436 5.579-50.343 21.81-60.307 50.446-6.96 20.001-6.966 40.486-.268 60.597 7.942 23.847 23.917 40.085 47.97 48.032 11.537 3.812 23.418 5.428 35.544 5.369z"/><path fill-rule="evenodd" clip-rule="evenodd" fill="#FEFDFD" d="M132.146 213.257c-12.126.059-24.007-1.558-35.544-5.369-24.053-7.947-40.028-24.186-47.97-48.032-6.698-20.111-6.692-40.596.268-60.597 9.964-28.636 30.87-44.867 60.306-50.446 20.916-3.963 41.861-3.31 61.809 4.023 21.864 8.038 36.271 23.67 40.988 47.141.776 3.865-.212 5.674-3.686 7.551-2.561 1.384-5.357 2.073-8.199 2.554-7.404 1.254-14.842 1.284-22.3.55-5.769-.567-10.604-3.048-14.607-7.15-2.604-2.667-5.321-5.281-7.546-8.249-11.945-15.934-45.333-13.758-52.984 11.379-4.714 15.485-4.739 31.494.095 46.961 5.58 17.85 26.182 26.318 43.315 18.636 2.67-1.197 4.96-2.909 7.008-4.945 1.812-1.801 3.701-3.575 5.218-5.613 7.106-9.553 16.593-13.452 28.364-12.784 6.07.345 12.146.316 18.021 2.126 7.041 2.168 8.543 4.607 6.862 11.773-3.908 16.657-13.978 28.876-27.88 38.286-10.943 7.408-23.522 9.596-36.23 11.348-5.072.698-10.187.87-15.308.857z"/></svg>