<svg xmlns="http://www.w3.org/2000/svg" width="256" height="256" viewBox="0 0 256 256"><path fill="#438DFB" d="M256 178.49v-149.038c0-8.805-7.14-15.944-15.944-15.944h-224.111c-8.807 0-15.945 7.139-15.945 15.944v197.095c0 8.805 7.138 15.945 15.945 15.945h175.389l64.003-64.002h.663z"/><circle fill="#fff" cx="201.964" cy="51.597" r="10.63"/><circle fill="#fff" cx="53.147" cy="51.597" r="10.63"/><g fill="#fff"><path d="M59.801 188.541c-5.9-7.187-8.849-15.932-8.849-26.236h14.529c.618 7.161 1.957 12.364 4.019 15.61 3.605 5.822 10.124 8.732 19.552 8.732 7.315 0 13.188-1.957 17.62-5.873 4.43-3.915 6.646-8.965 6.646-15.146 0-7.624-2.332-12.957-6.994-15.997-4.664-3.04-11.142-4.56-19.436-4.56-.927 0-1.868.013-2.821.038-.954.026-1.92.065-2.898.116v-12.288c1.442.154 2.653.259 3.632.31.978.052 2.035.077 3.168.077 5.203 0 9.479-.823 12.828-2.473 5.874-2.885 8.81-8.037 8.81-15.456 0-5.512-1.958-9.763-5.873-12.751-3.916-2.987-8.476-4.482-13.679-4.482-9.273 0-15.688 3.091-19.243 9.273-1.958 3.4-3.066 8.244-3.323 14.529h-13.754c0-8.243 1.648-15.25 4.946-21.02 5.667-10.304 15.636-15.456 29.907-15.456 11.283 0 20.016 2.512 26.198 7.535 6.183 5.023 9.273 12.301 9.273 21.832 0 6.801-1.829 12.314-5.487 16.538-2.268 2.627-5.204 4.688-8.81 6.182 5.821 1.598 10.367 4.676 13.64 9.235 3.271 4.56 4.907 10.138 4.907 16.731 0 10.562-3.478 19.165-10.433 25.812-6.955 6.646-16.822 9.969-29.598 9.969-13.086-.001-22.578-3.594-28.477-10.781zM150.334 117.946v-10.665c10.047-.978 17.053-2.614 21.021-4.907 3.967-2.292 6.929-7.715 8.887-16.268h10.974v110.201h-14.837v-78.362h-26.045z"/></g><path fill="#BED5FC" d="M191.334 242.492l64.666-64.002h-64.666z"/><path fill-opacity=".3" d="M191.334 178.49l-64.666 64.002h64.666z"/><path fill="#fff" d="M191.334 178.49v62.781"/></svg>