<svg xmlns="http://www.w3.org/2000/svg" width="256" height="256" viewBox="0 0 256 256"><path fill="#0F66A7" d="M224.3 3.5H31.6C14.1 3.5 0 17.6 0 35.1v185.7c0 17.5 14.1 31.6 31.6 31.6h192.8c17.5 0 31.6-14.1 31.6-31.6V35.1c-.1-17.5-14.2-31.6-31.7-31.6zm-95.7 215.7c-22.9 0-50.7-6.4-68.2-16.3l9.9-35c17.6 9.9 40 16.3 59.5 16.3 17.6 0 29-7.3 29-19.4 0-13.7-14.8-18.7-35.4-23.6C90.3 133.5 64 119.8 64 86.8c0-33.2 27.8-54.9 70.1-54.9 21.8 0 47.6 5.7 64.1 14.1l-9.9 35c-17.2-8.8-39.6-14.5-55.3-14.5-16.3 0-26.3 6.1-26.3 17.6 0 13.4 14.8 17.9 35.4 22.9 33.5 8 59.9 20.9 59.9 55.3-.2 32.6-28.4 56.9-73.4 56.9z"/></svg>