<svg xmlns="http://www.w3.org/2000/svg" width="256" height="256" viewBox="0 0 256 256"><path d="M157.428 176.323c-4.991 4.215-9.648 8.485-14.656 12.3-8.753 6.679-18.703 10.507-29.676 11.839-10.45 1.267-20.833 1.482-31.083-1.217-19.78-5.217-32.995-20.616-35.866-41.094-1.646-11.737-1.172-23.211 2.836-34.409 5.35-14.942 15.508-25.638 29.495-32.854 10.636-5.486 22.078-8.35 33.829-9.949 11.747-1.598 23.546-2.816 35.327-4.163 1.575-.18 2.457-.574 2.348-2.496-.343-5.95-.027-11.972-.808-17.852-1.471-11.134-8.85-17.112-20.019-18.304-6.458-.69-12.718.272-18.532 3.333-6.318 3.326-10.462 8.448-12.401 15.334-.357 1.267-.618 2.572-1.087 3.796-1.358 3.533-3.721 5.065-7.456 4.698-6.956-.685-13.903-1.473-20.853-2.22-3.646-.391-7.29-.841-10.941-1.172-5.061-.459-7.543-3.829-6.518-8.779 2.097-10.114 6.088-19.349 12.671-27.358 4.636-5.641 10.212-10.22 16.542-13.849 11.017-6.317 22.956-9.746 35.538-10.913 6.098-.564 12.256-1.198 18.35-.934 14.516.626 28.592 3.401 41.326 10.896 13.301 7.828 21.33 19.444 23.226 34.743 1.101 8.849 1.328 17.839 1.411 26.768.195 21.358-.06 42.72.152 64.078.075 7.632 2.921 14.563 7.37 20.783 1.936 2.703 3.969 5.34 5.886 8.057 2.321 3.29 2.951 7.256-1.446 10.804-8.483 6.845-16.612 14.115-24.882 21.221-4.316 3.708-8.074 3.513-12.394-.184-6.743-5.77-12.239-12.551-16.993-19.988-.232-.372-.534-.704-.696-.915zm-7.49-61.032c0-2.757-.061-5.514.023-8.268.044-1.359-.424-1.793-1.774-1.781-8.686.06-17.301.707-25.686 3.173-8.131 2.391-15.425 6.179-20.002 13.641-5.777 9.412-6.048 19.532-2.801 29.826 1.498 4.75 4.478 8.604 8.954 10.914 8.063 4.162 16.05 3.303 23.55-1.396 8.476-5.307 13.045-13.493 15.654-22.882 2.111-7.6 2.119-15.422 2.082-23.227z"/><path fill="#F89723" d="M129.798 256c-17.909-.352-33.364-2.047-48.584-5.795-20.863-5.14-40.356-13.479-58.186-25.431-7.414-4.969-14.233-10.824-21.323-16.275l-.256-.229c-1.057-1.065-2.042-2.225-.928-3.745 1.091-1.486 2.646-1.249 4.041-.552 2.358 1.179 4.627 2.534 6.954 3.775 13.197 7.034 26.957 12.725 41.216 17.21 14.188 4.46 28.653 7.688 43.397 9.682 13.901 1.878 27.863 2.78 41.87 2.281 13.635-.486 27.18-2.031 40.582-4.749 16.334-3.312 32.245-7.992 47.637-14.4.635-.263 1.287-.511 1.959-.652 1.926-.418 4.104.543 4.875 2.093.754 1.522.301 3.69-1.36 4.893-3.156 2.286-6.355 4.536-9.687 6.554-10.545 6.382-21.767 11.316-33.469 15.147-14.151 4.637-28.626 7.813-43.49 9.054-5.827.484-11.66.873-15.248 1.139zM251.529 200.188c3.314.707 4.439 2.35 4.442 5.796.01 7.821-2.138 15.166-5.201 22.264-2.547 5.904-6.048 11.186-10.894 15.491-.633.562-1.342 1.169-2.122 1.398-.731.213-1.861.24-2.33-.184-.459-.42-.61-1.617-.376-2.29 1.258-3.566 2.862-7.017 4.001-10.618 1.499-4.739 2.951-9.523 3.928-14.383 1.349-6.718-.854-8.133-7.089-8.521-5.912-.373-11.888.129-17.829.37-2.453.101-4.893.646-7.344.742-1.008.044-2.488-.25-2.962-.938-.874-1.258.202-2.545 1.296-3.107 3.809-1.952 7.591-4.082 11.62-5.448 5.549-1.879 11.383-2.594 17.291-2.323.03-.195 9.111.803 13.569 1.751z"/></svg>