<?xml version="1.0" encoding="utf-8"?>
<!DOCTYPE svg PUBLIC "-//W3C//DTD SVG 1.1//EN" "http://www.w3.org/Graphics/SVG/1.1/DTD/svg11.dtd">
<svg version="1.1" xmlns="http://www.w3.org/2000/svg" xmlns:xlink="http://www.w3.org/1999/xlink" x="0px" y="0px"
   width="50px" height="50px" viewBox="0 0 50 50" enable-background="new 0 0 50 50" xml:space="preserve">
<g>
  <path fill="#003262" d="M50,25.002C50,38.809,38.808,50,24.998,50C11.193,50,0,38.809,0,25C0,11.193,11.193,0,24.998,0
    C38.806,0,50,11.195,50,25.002z"/>
  <path fill="#FDB515" d="M25.029,1.248C11.987,1.248,1.41,11.822,1.41,24.867c0,13.043,10.577,23.619,23.619,23.619
    c13.046,0,23.621-10.576,23.621-23.619C48.65,11.822,38.075,1.248,25.029,1.248z M25.029,46.104
    c-11.727,0-21.234-9.509-21.234-21.236c0-11.727,9.507-21.232,21.234-21.232c11.729,0,21.235,9.506,21.235,21.232
    C46.265,36.595,36.759,46.104,25.029,46.104z"/>
  <path fill="#FFFFFF" d="M13.863,36.388l-0.922,0.655l-0.58-0.881l1.656-1.076h1.146v4.879h-1.301L13.863,36.388L13.863,36.388z"/>
  <path fill="#FFFFFF" d="M21.446,39.853c-0.37,0.09-0.783,0.195-1.446,0.195c-1.3,0-2.803-0.657-2.803-2.5
    c0-1.698,1.188-2.544,2.795-2.544c0.499,0,0.979,0.111,1.446,0.25l-0.105,1.056c-0.418-0.229-0.824-0.342-1.27-0.342
    c-0.923,0-1.523,0.671-1.523,1.579c0,0.958,0.677,1.537,1.627,1.537c0.426,0,0.86-0.112,1.217-0.252L21.446,39.853z"/>
  <path fill="#FFFFFF" d="M24.94,38h-1.225l0.629-1.906h0.014L24.94,38z M21.711,39.965h1.321l0.385-1.041h1.83l0.363,1.041h1.426
    l-1.879-4.878h-1.594L21.711,39.965z"/>
  <path fill="#FFFFFF" d="M28.882,36.01h0.342c0.496,0,0.951,0.084,0.951,0.537c0,0.555-0.531,0.566-0.951,0.566h-0.342V36.01
    L28.882,36.01z M27.581,39.965h1.301v-1.93h0.273c0.48,0,0.65,0.211,0.915,1.049l0.278,0.881h1.354l-0.473-1.329
    c-0.246-0.593-0.272-0.964-0.693-1.075v-0.013c0.629-0.146,0.937-0.58,0.937-1.23c0-0.84-0.705-1.229-1.571-1.229h-2.32
    L27.581,39.965L27.581,39.965z"/>
  <path fill="#FFFFFF" d="M33.648,36.052h0.502c0.95,0,1.515,0.503,1.515,1.473c0,0.974-0.544,1.478-1.515,1.478h-0.503
    L33.648,36.052L33.648,36.052z M32.347,39.965h1.774c1.664,0,2.888-0.637,2.888-2.46c0-1.888-1.188-2.418-2.888-2.418h-1.774
    V39.965z"/>
  <g>
    <path fill="#FDB515" d="M37.91,31.625c-0.521,0-0.94,0.422-0.94,0.94s0.42,0.94,0.94,0.94c0.519,0,0.94-0.422,0.94-0.94
      S38.429,31.625,37.91,31.625z M37.91,33.338c-0.427,0-0.772-0.346-0.772-0.771s0.347-0.771,0.772-0.771
      c0.425,0,0.772,0.345,0.772,0.771C38.683,32.994,38.335,33.338,37.91,33.338z"/>
    <g>
      <path fill="#FDB515" d="M38.413,33.049h-0.33l-0.25-0.393h-0.002v0.393h-0.264v-1.018h0.395c0.201,0,0.354,0.094,0.354,0.313
        c0,0.14-0.079,0.262-0.224,0.286L38.413,33.049z M37.832,32.488h0.025c0.087,0,0.185-0.017,0.185-0.127
        c0-0.109-0.097-0.127-0.185-0.127h-0.025V32.488z"/>
    </g>
  </g>
  <path fill="#FDB515" d="M36.911,29.4c-1.033-0.229-2.773-1.621-2.788-4.072c0.015-0.496,0.042-1.084,0-1.071
    c2.158-2.479,5.747-8.56,5.79-11.251c-0.042-1.381-0.445-1.916-1.072-1.93c-1.943,0.014-8.214,5.479-8.252,13.289
    c0.038,1.164,0.305,1.967,0.32,1.93c-1.46,1.457-2.639,1.992-3.429,2.035c-0.362-0.043-0.497-0.336-0.537-0.75
    c0.041-0.336,2.827-6.524,2.788-6.86c0.039-0.494-0.202-0.815-0.646-0.856h-2.144c-0.254,0.041-0.414,0.336-0.428,0.321
    c-0.146,0.015-0.469-0.28-1.606-0.321c-3.041,0.041-6.605,3.469-6.646,7.823c0.041,0.201-0.897,0.735-1.607,0.752
    c-1.191-0.017-2.799-0.551-2.787-4.396c-0.013-5.854,5.694-13.383,9.646-13.396c0.816,0.014,1.246,0.229,1.285,0.857
    c-0.039,1.486-1.755,2.021-2.25,2.037c-0.978-0.016-1.834,0.548-1.822,1.395c-0.012,0.789,0.576,1.109,1.394,1.069
    c1.085,0.04,3.522-2.21,3.537-4.501c-0.015-1.514-1.005-2.236-2.573-2.252c-4.379,0.016-9.417,4.273-11.68,8.468
    c-1.192,2.157-1.969,4.407-1.93,6.537c-0.04,4.62,3.739,5.667,5.573,5.681c2.183-0.014,3.523-1.085,3.645-1.072
    c0.173-0.013,0.334,1.006,2.142,0.965c1.971,0.041,2.613-1.138,2.787-1.178c0.094,0.04,0.066,1.219,2.143,1.178
    c2.586,0.041,4.219-1.487,5.467-2.465c1.513,2.317,3.469,2.748,4.285,2.895c0.254,0.014,0.522,0.014,0.537,0.107
    c-0.015,0.012-0.229,0.119-0.431,0.213c-1.032,0.201-3.093,0.418-4.928,0.431c-3.712-0.013-9.873-0.443-13.289-0.431
    c-5.694-0.014-8.158,2.986-8.146,3.752c-0.012,0.146,0.068,0.254,0.215,0.216c0.55,0.038,1.863-1.168,6.217-1.181
    c3.523,0.013,10.167,0.309,13.502,0.32c6.229-0.013,8.828-3.334,8.789-3.75C38.022,29.709,37.539,29.629,36.911,29.4z
     M38.517,13.968c0.041,0.016,0.067,0.12,0.108,0.215c-0.041,1.515-3.335,7.14-4.18,8.037
    C34.459,18.617,37.995,13.983,38.517,13.968z M25.873,21.47c0.039,0.095-1.381,3.39-2.039,4.931
    c-0.173,0.469-0.604,1.674-1.069,1.715c-0.549-0.041-0.791-0.471-0.75-0.965c-0.041-2.398,2.154-5.988,3.643-6.001
    C25.886,21.16,25.912,21.296,25.873,21.47z"/>
</g>
</svg>
