<svg version="1.1" xmlns="http://www.w3.org/2000/svg" xmlns:xlink="http://www.w3.org/1999/xlink"
   width="50px" height="50px">
<g>
  <path fill="#003262" d="M55.55,182.696c0,13.806-11.193,24.998-25.002,24.998c-13.805,0-24.998-11.192-24.998-25
    c0-13.807,11.193-25,24.998-25C44.356,157.694,55.55,168.888,55.55,182.696z"/>
  <path fill="#FDB515" d="M30.579,158.942c-13.042,0-23.619,10.574-23.619,23.618s10.577,23.619,23.619,23.619
    c13.046,0,23.621-10.575,23.621-23.619S43.625,158.942,30.579,158.942z M30.579,203.797c-11.727,0-21.234-9.509-21.234-21.236
    s9.507-21.233,21.234-21.233c11.729,0,21.236,9.506,21.236,21.233S42.308,203.797,30.579,203.797z"/>
  <path fill="#FFFFFF" d="M19.413,194.081l-0.922,0.655l-0.58-0.88l1.656-1.076h1.146v4.878h-1.301V194.081z"/>
  <path fill="#FFFFFF" d="M26.996,197.546c-0.37,0.09-0.783,0.195-1.446,0.195c-1.3,0-2.803-0.657-2.803-2.5
    c0-1.698,1.188-2.544,2.795-2.544c0.499,0,0.979,0.111,1.446,0.25l-0.105,1.056c-0.418-0.23-0.825-0.342-1.27-0.342
    c-0.923,0-1.523,0.671-1.523,1.579c0,0.958,0.677,1.537,1.627,1.537c0.426,0,0.86-0.112,1.217-0.252L26.996,197.546z"/>
  <path fill="#FFFFFF" d="M30.49,195.694h-1.224l0.628-1.907h0.014L30.49,195.694z M27.261,197.658h1.321l0.385-1.041h1.83
    l0.363,1.041h1.426l-1.879-4.878h-1.594L27.261,197.658z"/>
  <path fill="#FFFFFF" d="M34.432,193.703h0.342c0.496,0,0.951,0.084,0.951,0.537c0,0.555-0.532,0.566-0.951,0.566h-0.342V193.703
    L34.432,193.703z M33.131,197.658h1.301v-1.929h0.273c0.481,0,0.65,0.21,0.915,1.048l0.278,0.881h1.355l-0.473-1.329
    c-0.246-0.592-0.272-0.964-0.693-1.075v-0.013c0.629-0.146,0.937-0.58,0.937-1.23c0-0.84-0.705-1.23-1.572-1.23h-2.32
    L33.131,197.658L33.131,197.658z"/>
  <path fill="#FFFFFF" d="M39.198,193.745H39.7c0.951,0,1.515,0.503,1.515,1.473c0,0.973-0.544,1.477-1.515,1.477h-0.503V193.745z
     M37.896,197.658h1.775c1.664,0,2.888-0.637,2.888-2.46c0-1.887-1.189-2.418-2.888-2.418h-1.775V197.658z"/>
  <g>
    <path fill="#FDB515" d="M43.46,189.319c-0.521,0-0.941,0.421-0.941,0.94s0.42,0.94,0.941,0.94c0.519,0,0.94-0.421,0.94-0.94
      S43.979,189.319,43.46,189.319z M43.46,191.031c-0.427,0-0.773-0.345-0.773-0.771s0.347-0.771,0.773-0.771
      c0.425,0,0.772,0.345,0.772,0.771C44.232,190.687,43.885,191.031,43.46,191.031z"/>
    <g>
      <path fill="#FDB515" d="M43.963,190.742h-0.33l-0.25-0.393h-0.002v0.393h-0.264v-1.018h0.395c0.201,0,0.354,0.095,0.354,0.314
        c0,0.14-0.079,0.262-0.223,0.286L43.963,190.742z M43.382,190.182h0.025c0.087,0,0.185-0.017,0.185-0.128
        c0-0.108-0.097-0.126-0.185-0.126h-0.025V190.182z"/>
    </g>
  </g>
  <path fill="#FDB515" d="M42.461,187.094c-1.033-0.229-2.774-1.621-2.788-4.072c0.014-0.496,0.042-1.085,0-1.072
    c2.158-2.479,5.747-8.56,5.79-11.251c-0.042-1.381-0.445-1.916-1.073-1.93c-1.943,0.014-8.213,5.48-8.252,13.289
    c0.039,1.165,0.306,1.967,0.321,1.93c-1.46,1.458-2.638,1.993-3.429,2.035c-0.362-0.042-0.497-0.336-0.537-0.75
    c0.041-0.336,2.828-6.524,2.788-6.86c0.04-0.494-0.202-0.816-0.645-0.857h-2.144c-0.254,0.041-0.414,0.336-0.427,0.322
    c-0.147,0.014-0.469-0.281-1.607-0.322c-3.041,0.041-6.605,3.47-6.646,7.824c0.041,0.201-0.897,0.735-1.607,0.752
    c-1.191-0.017-2.799-0.551-2.787-4.396c-0.013-5.853,5.694-13.382,9.646-13.396c0.817,0.014,1.246,0.229,1.286,0.857
    c-0.04,1.487-1.755,2.022-2.251,2.038c-0.977-0.016-1.833,0.547-1.822,1.394c-0.012,0.789,0.576,1.109,1.394,1.069
    c1.085,0.04,3.523-2.21,3.537-4.501c-0.014-1.513-1.005-2.236-2.573-2.251c-4.379,0.015-9.417,4.273-11.68,8.467
    c-1.192,2.158-1.969,4.407-1.93,6.537c-0.04,4.621,3.739,5.667,5.573,5.681c2.183-0.014,3.523-1.085,3.645-1.072
    c0.173-0.013,0.334,1.005,2.142,0.965c1.97,0.04,2.613-1.138,2.787-1.178c0.094,0.04,0.066,1.218,2.143,1.178
    c2.585,0.04,4.218-1.488,5.466-2.465c1.513,2.317,3.469,2.747,4.286,2.894c0.254,0.014,0.522,0.014,0.536,0.107
    c-0.014,0.013-0.229,0.12-0.43,0.214c-1.032,0.2-3.093,0.417-4.928,0.43c-3.712-0.013-9.873-0.443-13.289-0.43
    c-5.694-0.014-8.158,2.986-8.146,3.751c-0.012,0.147,0.068,0.254,0.215,0.216c0.55,0.038,1.863-1.168,6.217-1.181
    c3.523,0.013,10.167,0.309,13.502,0.321c6.229-0.013,8.828-3.334,8.789-3.75C43.572,187.403,43.089,187.322,42.461,187.094z
     M44.066,171.661c0.041,0.016,0.068,0.12,0.109,0.215c-0.041,1.514-3.335,7.14-4.18,8.037
    C40.009,176.311,43.545,171.677,44.066,171.661z M31.423,179.163c0.039,0.095-1.381,3.39-2.039,4.931
    c-0.173,0.468-0.604,1.674-1.07,1.714c-0.549-0.04-0.791-0.47-0.75-0.964c-0.041-2.398,2.155-5.989,3.643-6.001
    C31.436,178.854,31.462,178.989,31.423,179.163z"/>
</g>
</svg>
