<svg xmlns="http://www.w3.org/2000/svg" width="360" height="55" viewBox="0 0 360 55"><style>.cc-svg-calcentral-logo-gold { fill: #f1a91e; } .cc-svg-calcentral-logo-blue { fill: #104777; }</style><path d="M33.714 19.658c-2.7-1.728-5.832-2.7-9.396-2.7-7.344 0-12.744 5.238-12.744 14.418 0 8.91 5.13 14.472 12.853 14.472 3.672 0 7.128-1.295 9.45-3.023l.647 3.402c-2.483 1.619-6.21 2.754-10.151 2.754-9.774 0-16.309-6.805-16.309-17.496 0-10.747 6.858-17.659 16.309-17.659 4.104 0 7.938 1.242 10.422 2.754l-1.081 3.078zM70.649 48.278h-3.51l-3.564-9.666h-15.282l-3.563 9.666h-3.511l12.799-33.75h4.05l12.581 33.75zm-14.687-30.348l-6.48 17.551h12.906l-6.426-17.551zM79.02 48.278v-33.75h3.456v30.51h16.686v3.24h-20.142z" class="cc-svg-calcentral-logo-gold"/><path class="cc-svg-calcentral-logo-blue" d="M132.479 22.088c-2.7-1.782-5.616-2.7-8.856-2.7-6.588 0-10.962 4.536-10.962 11.88 0 7.453 4.266 12.15 11.07 12.15 3.456 0 6.75-1.296 9.234-3.023l1.241 6.048c-2.699 1.62-6.912 2.646-10.746 2.646-10.368 0-17.442-6.533-17.442-17.604 0-10.8 7.074-17.767 17.604-17.767 3.942 0 7.992 1.026 10.908 2.646l-2.051 5.724zM145.276 48.278v-33.75h23.005v5.562h-16.524v8.479h13.555v5.562h-13.555v8.587h16.524v5.562h-23.005zM202.679 14.528h6.264v34.075h-7.02l-16.146-24.841v24.517h-6.265v-33.75h7.183l15.984 24.57v-24.571zM236.645 20.306v27.973h-6.534v-27.973h-11.286v-5.778h29.106v5.778h-11.286zM264.401 48.278h-6.589v-33.75h11.826c8.532 0 13.068 4.05 13.068 10.26 0 4.806-2.7 8.153-7.29 9.72l8.856 13.771h-7.506l-7.507-12.366-4.859.324v12.041zm4.86-17.335c4.051-.215 6.696-2.051 6.696-5.724 0-3.51-2.646-5.184-7.344-5.184h-4.267v11.017l4.915-.109zM322.505 48.278h-6.643l-2.808-7.992h-13.608l-2.754 7.992h-6.643l12.312-33.75h7.992l12.152 33.75zm-16.2-28.08l-5.131 14.634h10.206l-5.075-14.634zM331.468 48.278v-33.75h6.589v27.972h15.228v5.778h-21.817z"/></svg>