<svg xmlns="http://www.w3.org/2000/svg" xmlns:xlink="http://www.w3.org/1999/xlink" version="1.1" id="Layer_1" x="0px" y="0px" width="405px" height="55px" viewBox="-0.25 0.25 405 55" xml:space="preserve">
<style>
  .cc-svg-calcentral-logo-gold {
    fill: #f1a91e;
  }
  .cc-svg-calcentral-logo-blue {
    fill: #104777;
  }
  .cc-svg-calcentral-logo-red {
    fill: #c02026;
  }
</style>
<g>
  <g>
    <path d="M33.429 19.728c-2.7-1.729-5.832-2.7-9.396-2.7c-7.344 0-12.745 5.238-12.745 14.4 c0 8.9 5.1 14.5 12.9 14.473c3.672 0 7.128-1.296 9.45-3.024l0.648 3.402c-2.484 1.62-6.21 2.754-10.152 2.8 c-9.774 0-16.308-6.805-16.308-17.496c0-10.746 6.858-17.658 16.308-17.658c4.104 0 7.9 1.2 10.4 2.754L33.429 19.728z" class="cc-svg-calcentral-logo-gold"/>
    <path d="M70.095 48.348h-3.51l-3.564-9.666H47.738l-3.564 9.666h-3.51l12.798-33.751h4.05L70.095 48.348z M55.406 17.999l-6.48 17.551h12.906L55.406 17.999z" class="cc-svg-calcentral-logo-gold"/>
    <path d="M78.194 48.348V14.597h3.456v30.511h16.686v3.24H78.194z" class="cc-svg-calcentral-logo-gold"/>
  </g>
  <g>
    <path d="M132.195 22.157c-2.7-1.782-5.616-2.7-8.856-2.7c-6.588 0-10.962 4.536-10.962 11.9 c0 7.5 4.3 12.2 11.1 12.15c3.456 0 6.75-1.296 9.234-3.023l1.242 6.048c-2.7 1.62-6.912 2.646-10.746 2.6 c-10.368 0-17.442-6.533-17.442-17.604c0-10.801 7.074-17.767 17.604-17.767c3.942 0 8 1 10.9 2.646L132.195 22.157z" class="cc-svg-calcentral-logo-blue"/>
    <path d="M144.128 48.348V14.597h23.004v5.562h-16.524v8.479h13.554v5.562h-13.554v8.586h16.524v5.562H144.128z" class="cc-svg-calcentral-logo-blue"/>
    <path d="M200.666 14.597h6.264v34.075h-7.02l-16.146-24.841v24.517H177.5V14.597h7.182l15.984 24.571V14.597z" class="cc-svg-calcentral-logo-blue"/>
    <path d="M233.768 20.375v27.973h-6.534V20.375h-11.287v-5.778h29.107v5.778H233.768z" class="cc-svg-calcentral-logo-blue"/>
    <path d="M260.659 48.348h-6.588V14.597c0 0 11.9 0 11.8 0c8.532 0 13.1 4.1 13.1 10.3 c0 4.806-2.7 8.154-7.29 9.72l8.856 13.771h-7.506l-7.506-12.366l-4.86 0.324V48.348z M265.52 31 c4.05-0.216 6.696-2.053 6.696-5.725c0-3.51-2.646-5.184-7.344-5.184c-0.054 0-4.266 0-4.266 0v11.016L265.52 31.014z" class="cc-svg-calcentral-logo-blue"/>
    <path d="M317.899 48.348h-6.642l-2.808-7.992h-13.608l-2.754 7.992h-6.642l12.312-33.751h7.992L317.899 48.348z M301.699 20.268l-5.13 14.634h10.206L301.699 20.268z" class="cc-svg-calcentral-logo-blue"/>
    <path d="M325.999 48.348V14.597h6.588v27.973h15.229v5.778H325.999z" class="cc-svg-calcentral-logo-blue"/>
  </g>
  <g>
    <path d="M361.324 16.267c0 2.244-1.474 3.828-4.951 3.828h-4.467V6.343h4.291c3.301 0 4.7 1.5 4.7 3.6 c0 1.342-0.814 2.662-2.64 3.124C360.268 13.4 361.3 14.7 361.3 16.267z M356.263 7.619h-2.948v4.95 c0.022 0 2.7 0 2.7 0c2.068 0 3.432-0.901 3.432-2.53C359.476 8.6 358.4 7.6 356.3 7.619z M356.131 13.846h-2.816 v4.973h3.168c2.42 0 3.433-0.99 3.433-2.552C359.916 14.7 358.6 13.8 356.1 13.846z" class="cc-svg-calcentral-logo-red"/>
    <path d="M364.006 20.095V6.343h8.317v1.298h-6.909v4.929h5.765v1.276h-5.765v4.951h6.909v1.298H364.006z" class="cc-svg-calcentral-logo-red"/>
    <path d="M380.155 7.663v12.432h-1.408V7.663h-4.841v-1.32h11.09v1.32H380.155z" class="cc-svg-calcentral-logo-red"/>
    <path d="M396.722 20.095h-1.431l-1.452-3.938h-6.227l-1.452 3.938h-1.43l5.215-13.752h1.65L396.722 20.095z M390.737 7.729l-2.64 7.151h5.258L390.737 7.729z" class="cc-svg-calcentral-logo-red"/>
  </g>
</g>
</svg>
