<svg version="1.1" xmlns="http://www.w3.org/2000/svg" xmlns:xlink="http://www.w3.org/1999/xlink" x="0px" y="0px"
   width="360px" height="55px" viewBox="0 0 360 55" enable-background="new 0 0 360 55" xml:space="preserve">
<style>
  .cc-svg-calcentral-logo-gold {
    fill: #f1a91e;
  }
  .cc-svg-calcentral-logo-blue {
    fill: #104777;
  }
</style>
<g>
  <path d="M33.714,19.658c-2.7-1.728-5.832-2.7-9.396-2.7c-7.344,0-12.744,5.238-12.744,14.418
    c0,8.91,5.13,14.472,12.853,14.472c3.672,0,7.128-1.295,9.45-3.023l0.647,3.402c-2.483,1.619-6.21,2.754-10.151,2.754
    c-9.774,0-16.309-6.805-16.309-17.496c0-10.747,6.858-17.659,16.309-17.659c4.104,0,7.938,1.242,10.422,2.754L33.714,19.658z" class="cc-svg-calcentral-logo-gold" />
  <path d="M70.649,48.278h-3.51l-3.564-9.666H48.293l-3.563,9.666h-3.511l12.799-33.75h4.05L70.649,48.278z
     M55.962,17.93l-6.48,17.551h12.906L55.962,17.93z" class="cc-svg-calcentral-logo-gold" />
  <path d="M79.02,48.278v-33.75h3.456v30.51h16.686v3.24H79.02z" class="cc-svg-calcentral-logo-gold" />
</g>
<g>
  <path class="cc-svg-calcentral-logo-blue" d="M132.479,22.088c-2.7-1.782-5.616-2.7-8.856-2.7c-6.588,0-10.962,4.536-10.962,11.88
    c0,7.453,4.266,12.15,11.07,12.15c3.456,0,6.75-1.296,9.234-3.023l1.241,6.048c-2.699,1.62-6.912,2.646-10.746,2.646
    c-10.368,0-17.442-6.533-17.442-17.604c0-10.8,7.074-17.767,17.604-17.767c3.942,0,7.992,1.026,10.908,2.646L132.479,22.088z"/>
  <path class="cc-svg-calcentral-logo-blue" d="M145.276,48.278v-33.75h23.005v5.562h-16.524v8.479h13.555v5.562h-13.555v8.587h16.524v5.562H145.276z"/>
  <path class="cc-svg-calcentral-logo-blue" d="M202.679,14.528h6.264v34.075h-7.02l-16.146-24.841v24.517h-6.265v-33.75h7.183l15.984,24.57V14.528z"/>
  <path class="cc-svg-calcentral-logo-blue" d="M236.645,20.306v27.973h-6.534V20.306h-11.286v-5.778h29.106v5.778H236.645z"/>
  <path class="cc-svg-calcentral-logo-blue" d="M264.401,48.278h-6.589v-33.75c0,0,11.935,0,11.826,0c8.532,0,13.068,4.05,13.068,10.26
    c0,4.806-2.7,8.153-7.29,9.72l8.856,13.771h-7.506l-7.507-12.366l-4.859,0.324V48.278z M269.261,30.943
    c4.051-0.215,6.696-2.051,6.696-5.724c0-3.51-2.646-5.184-7.344-5.184c-0.055,0-4.267,0-4.267,0v11.017L269.261,30.943z"/>
  <path class="cc-svg-calcentral-logo-blue" d="M322.505,48.278h-6.643l-2.808-7.992h-13.608l-2.754,7.992h-6.643l12.312-33.75h7.992L322.505,48.278z
     M306.305,20.198l-5.131,14.634h10.206L306.305,20.198z"/>
  <path class="cc-svg-calcentral-logo-blue" d="M331.468,48.278v-33.75h6.589V42.5h15.228v5.778H331.468z"/>
</g>
</svg>
