<svg version="1.1" xmlns="http://www.w3.org/2000/svg" xmlns:xlink="http://www.w3.org/1999/xlink" x="0px" y="0px"
   width="265px" height="40px" viewBox="0 0 265 40" enable-background="new 0 0 265 40" xml:space="preserve">
<style>
  .cc-svg-calcentral-logo-gold {
    fill: #f1a91e;
  }
  .cc-svg-calcentral-logo-blue {
    fill: #104777;
  }
</style>
<g>
  <path class="cc-svg-calcentral-logo-gold" d="M24.207,13.111c-2-1.28-4.319-2-6.959-2c-5.439,0-9.438,3.879-9.438,10.678
    c0,6.6,3.799,10.719,9.519,10.719c2.719,0,5.278-0.961,6.998-2.24l0.48,2.52c-1.84,1.201-4.6,2.041-7.519,2.041
    c-7.239,0-12.078-5.039-12.078-12.959c0-7.958,5.079-13.077,12.078-13.077c3.039,0,5.879,0.92,7.719,2.04L24.207,13.111z"/>
  <path class="cc-svg-calcentral-logo-gold" d="M51.567,34.307h-2.6l-2.64-7.159H35.01l-2.64,7.159h-2.6l9.479-24.995h3L51.567,34.307z M40.688,11.831
    L35.89,24.829h9.559L40.688,11.831z"/>
  <path class="cc-svg-calcentral-logo-gold" d="M57.77,34.307V9.312h2.56v22.597h12.358v2.398H57.77z"/>
</g>
<g>
  <path class="cc-svg-calcentral-logo-blue" d="M97.366,14.91c-2-1.319-4.159-2-6.559-2c-4.88,0-8.119,3.359-8.119,8.799c0,5.519,3.16,8.998,8.199,8.998
    c2.56,0,4.999-0.959,6.839-2.238l0.92,4.479c-2,1.199-5.119,1.961-7.959,1.961c-7.679,0-12.918-4.84-12.918-13.04
    c0-7.998,5.239-13.157,13.038-13.157c2.919,0,5.919,0.76,8.078,1.959L97.366,14.91z"/>
  <path class="cc-svg-calcentral-logo-blue" d="M106.85,34.307V9.312h17.037v4.119h-12.238v6.279h10.038v4.12h-10.038v6.358h12.238v4.119H106.85z"/>
  <path class="cc-svg-calcentral-logo-blue" d="M149.367,9.312h4.639v25.235h-5.199L136.849,16.15v18.156h-4.639V9.312h5.318l11.839,18.197V9.312z"/>
  <path class="cc-svg-calcentral-logo-blue" d="M174.527,13.591v20.716h-4.84V13.591h-8.358V9.312h21.557v4.279H174.527z"/>
  <path class="cc-svg-calcentral-logo-blue" d="M195.088,34.307h-4.879V9.312c0,0,8.838,0,8.758,0c6.319,0,9.679,3,9.679,7.599
    c0,3.559-2,6.039-5.399,7.199l6.56,10.198h-5.56l-5.559-9.159l-3.6,0.24V34.307z M198.688,21.469
    c2.999-0.16,4.959-1.52,4.959-4.239c0-2.6-1.96-3.839-5.439-3.839c-0.04,0-3.159,0-3.159,0v8.159L198.688,21.469z"/>
  <path class="cc-svg-calcentral-logo-blue" d="M238.125,34.307h-4.92l-2.079-5.918h-10.078l-2.04,5.918h-4.919l9.118-24.995h5.919L238.125,34.307z
     M226.127,13.511l-3.8,10.838h7.559L226.127,13.511z"/>
  <path class="cc-svg-calcentral-logo-blue" d="M244.768,34.307V9.312h4.879v20.716h11.278v4.279H244.768z"/>
</g>
</svg>
