<?xml version="1.0" encoding="utf-8"?>
<!DOCTYPE svg PUBLIC "-//W3C//DTD SVG 1.1//EN" "http://www.w3.org/Graphics/SVG/1.1/DTD/svg11.dtd">
<svg version="1.1" xmlns="http://www.w3.org/2000/svg" xmlns:xlink="http://www.w3.org/1999/xlink" x="0px" y="0px" width="256px"
   height="256px" viewBox="0 0 256 256" enable-background="new 0 0 256 256" xml:space="preserve">
<g>
  <path fill="#54B848" d="M228.688,100.695c-12.094,0-22.322,7.849-25.921,18.724h-19.252c-2.243-14.708-10.216-27.551-21.56-36.183
    l9.29-16.067c11.663,3.13,24.428-1.744,30.765-12.706c7.543-13.064,3.064-29.774-9.994-37.317
    c-13.078-7.549-29.787-3.077-37.323,10c-6.044,10.467-4.355,23.252,3.26,31.818l-9.623,16.656
    c-6.311-2.457-13.156-3.801-20.34-3.801c-7.72,0-15.086,1.556-21.788,4.375l-9.284-16.051c8.566-8.544,10.731-22.035,4.407-32.998
    c-7.549-13.078-24.252-17.55-37.316-10C50.93,24.688,46.457,41.398,54.007,54.463c6.023,10.474,17.968,15.396,29.181,13.071
    l9.616,16.68c-10.686,8.593-18.156,21.025-20.327,35.205H53.231c-3.593-10.875-13.835-18.724-25.928-18.724
    C12.23,100.695,0,112.926,0,128.005s12.23,27.316,27.304,27.316c12.667,0,23.287-8.619,26.377-20.295h18.58
    c1.858,14.825,9.467,27.851,20.543,36.756l-9.616,16.689c-11.213-2.32-23.157,2.608-29.181,13.078
    c-7.55,13.065-3.077,29.768,10.001,37.304c13.064,7.55,29.768,3.077,37.316-10c6.324-10.946,4.159-24.461-4.394-32.981
    l9.283-16.058c6.702,2.816,14.056,4.374,21.775,4.374c7.184,0,14.029-1.355,20.34-3.801l9.623,16.65
    c-7.621,8.567-9.304,21.364-3.26,31.815c7.536,13.077,24.245,17.55,37.323,10c13.059-7.536,17.537-24.238,9.994-37.304
    c-6.343-10.959-19.108-15.842-30.765-12.706l-9.29-16.077c11.748-8.918,19.857-22.368,21.781-37.74h18.587
    c3.097,11.676,13.703,20.295,26.364,20.295c15.092,0,27.315-12.237,27.315-27.316S243.779,100.695,228.688,100.695
     M147.325,161.481c-18.476,10.666-42.115,4.329-52.794-14.16c-10.666-18.476-4.329-42.121,14.147-52.78
    c16.168-9.336,36.247-5.672,48.178,7.745l-21.905,12.647l-19.584-5.235c-3.286-0.893-6.669,0.867-7.869,3.971l22.642,39.26
    c3.312,0.508,6.533-1.539,7.406-4.812l5.255-19.598l21.905-12.647C170.358,132.914,163.48,152.146,147.325,161.481"/>
</g>
</svg>
