<svg xmlns="http://www.w3.org/2000/svg" width="256" height="256" viewBox="0 0 256 256"><path fill="#E75A4D" d="M234.994 35.393c11.534 0 20.972 9.438 20.972 20.972v6.08l-29.138 20.813-99.195 68.331-99.195-69.025v138.04399999999998h-7.466c-11.534-.001-20.972-9.438-20.972-20.973v-143.264c0-11.535 9.438-20.972 20.972-20.972l106.661 79.081 107.355-79.081.006-.006z"/><path fill="#E7E4D7" d="M28.438 82.564v138.043h198.396v-137.35l-99.201 68.331z"/><path fill="#B8B7AE" d="M28.438 220.607l99.195-69.019-.448-.317-98.747 67.819z"/><path fill="#B7B6AD" d="M226.834 83.257l.058 137.35-99.259-69.019z"/><path fill="#B2392F" d="M255.966 62.444l.034 137.208c-.5 15.25-7.108 20.693-29.108 20.949l-.058-137.35 29.138-20.813-.006.006z"/><path fill="#F7F5ED" d="M20.972 35.393l106.661 79.081 107.361-79.081z"/></svg>