<?xml version="1.0" encoding="utf-8"?>
<svg version="1.1" xmlns="http://www.w3.org/2000/svg" xmlns:xlink="http://www.w3.org/1999/xlink" x="0px" y="0px" width="256px"
   height="256px" viewBox="0 0 256 256" enable-background="new 0 0 256 256" xml:space="preserve">
<g>
  <path fill="#438DFB" d="M256,178.49V29.452c0-8.805-7.14-15.944-15.944-15.944H15.945C7.138,13.508,0,20.647,0,29.452v197.095
    c0,8.805,7.138,15.945,15.945,15.945h175.389l64.003-64.002H256z"/>
  <circle fill="#FFFFFF" cx="201.964" cy="51.597" r="10.63"/>
  <circle fill="#FFFFFF" cx="53.147" cy="51.597" r="10.63"/>
  <g>
    <path fill="#FFFFFF" d="M59.801,188.541c-5.9-7.187-8.849-15.932-8.849-26.236h14.529c0.618,7.161,1.957,12.364,4.019,15.61
      c3.605,5.822,10.124,8.732,19.552,8.732c7.315,0,13.188-1.957,17.62-5.873c4.43-3.915,6.646-8.965,6.646-15.146
      c0-7.624-2.332-12.957-6.994-15.997c-4.664-3.04-11.142-4.56-19.436-4.56c-0.927,0-1.868,0.013-2.821,0.038
      c-0.954,0.026-1.92,0.065-2.898,0.116v-12.288c1.442,0.154,2.653,0.259,3.632,0.31c0.978,0.052,2.035,0.077,3.168,0.077
      c5.203,0,9.479-0.823,12.828-2.473c5.874-2.885,8.81-8.037,8.81-15.456c0-5.512-1.958-9.763-5.873-12.751
      c-3.916-2.987-8.476-4.482-13.679-4.482c-9.273,0-15.688,3.091-19.243,9.273c-1.958,3.4-3.066,8.244-3.323,14.529H53.735
      c0-8.243,1.648-15.25,4.946-21.02c5.667-10.304,15.636-15.456,29.907-15.456c11.283,0,20.016,2.512,26.198,7.535
      c6.183,5.023,9.273,12.301,9.273,21.832c0,6.801-1.829,12.314-5.487,16.538c-2.268,2.627-5.204,4.688-8.81,6.182
      c5.821,1.598,10.367,4.676,13.64,9.235c3.271,4.56,4.907,10.138,4.907,16.731c0,10.562-3.478,19.165-10.433,25.812
      c-6.955,6.646-16.822,9.969-29.598,9.969C75.192,199.321,65.7,195.728,59.801,188.541z"/>
    <path fill="#FFFFFF" d="M150.334,117.946v-10.665c10.047-0.978,17.053-2.614,21.021-4.907c3.967-2.292,6.929-7.715,8.887-16.268
      h10.974v110.201h-14.837v-78.362H150.334z"/>
  </g>
  <polygon fill="#BED5FC" points="191.334,242.492 256,178.49 191.334,178.49"/>
  <polygon fill-opacity="0.3" points="191.334,178.49 126.668,242.492 191.334,242.492"/>
  <line fill="#FFFFFF" x1="191.334" y1="178.49" x2="191.334" y2="241.271"/>
</g>
</svg>
