<svg xmlns="http://www.w3.org/2000/svg" width="256" height="256" viewBox="0 0 256 256"><path fill="#24336A" d="M0 128.003c0 57.918 105.911 107.495 256 127.946v-255.898c-150.089 20.451-256 70.032-256 127.952z"/><path fill="#fff" d="M138.252 51.758h35.847v42.543l-2.225 18.946h2.225c5.577-13.19 17.653-21.178 31.951-21.178 29.165 0 39.199 24.892 39.199 50.149 0 27.129-11.705 54.994-42.91 54.994-12.636 0-18.578-3.721-28.24-11.154h-2.225l-4.457 8.916h-29.165v-143.216zm35.85 114.617c3.534 5.574 8.734 9.66 15.422 9.66 13.933 0 17.649-20.432 17.649-31.023 0-10.027-2.788-26.188-15.976-26.188-8.365 0-13.75 7.422-17.099 14.116v33.436h.004z"/></svg>