<?xml version="1.0" encoding="utf-8"?>
<!DOCTYPE svg PUBLIC "-//W3C//DTD SVG 1.1//EN" "http://www.w3.org/Graphics/SVG/1.1/DTD/svg11.dtd">
<svg version="1.1" xmlns="http://www.w3.org/2000/svg" xmlns:xlink="http://www.w3.org/1999/xlink" x="0px" y="0px" width="256px"
   height="256px" viewBox="0 0 256 256" enable-background="new 0 0 256 256" xml:space="preserve">
<g>
  <path fill="#24336A" d="M0,128.003c0,57.918,105.911,107.495,256,127.946V0.051C105.911,20.502,0,70.083,0,128.003z"/>
  <path fill="#FFFFFF" d="M138.252,51.758h35.847v42.543l-2.225,18.946h2.225c5.577-13.19,17.653-21.178,31.951-21.178
    c29.165,0,39.199,24.892,39.199,50.149c0,27.129-11.705,54.994-42.91,54.994c-12.636,0-18.578-3.721-28.24-11.154h-2.225
    l-4.457,8.916h-29.165V51.758z M174.102,166.375c3.534,5.574,8.734,9.66,15.422,9.66c13.933,0,17.649-20.432,17.649-31.023
    c0-10.027-2.788-26.188-15.976-26.188c-8.365,0-13.75,7.422-17.099,14.116v33.436H174.102z"/>
</g>
</svg>
