<?xml version="1.0" encoding="utf-8"?>
<!DOCTYPE svg PUBLIC "-//W3C//DTD SVG 1.1//EN" "http://www.w3.org/Graphics/SVG/1.1/DTD/svg11.dtd">
<svg version="1.1" xmlns="http://www.w3.org/2000/svg" xmlns:xlink="http://www.w3.org/1999/xlink" x="0px" y="0px" width="256px"
   height="256px" viewBox="0 0 256 256" enable-background="new 0 0 256 256" xml:space="preserve">
<g>
  <path fill="#7E7E7E" d="M37.119,127.717c0-18.899-14.185-34.453-32.464-36.696C1.613,102.75,0,115.045,0,127.717
    c0,12.671,1.613,24.982,4.655,36.695C22.947,162.169,37.119,146.615,37.119,127.717z"/>
  <path fill="#7E7E7E" d="M218.801,127.717c0,18.898,14.164,34.452,32.448,36.695c3.05-11.713,4.663-24.024,4.663-36.695
    c0-12.671-1.613-24.967-4.663-36.696C232.965,93.264,218.801,108.818,218.801,127.717z"/>
  <path fill="#7E7E7E" d="M127.713,218.889c-18.891,0-34.44,14.181-36.692,32.465c11.729,3.033,24.021,4.646,36.7,4.646
    c12.683,0,24.971-1.613,36.691-4.646C162.177,233.069,146.623,218.889,127.713,218.889z"/>
  <path fill="#7E7E7E" d="M127.721,37.119c18.902,0,34.456-14.18,36.691-32.472C152.691,1.613,140.403,0,127.721,0
    c-12.68,0-24.971,1.613-36.7,4.647C93.272,22.939,108.822,37.119,127.721,37.119z"/>
  <path fill="#7E7E7E" d="M192.07,192.054c-13.351,13.357-14.34,34.356-3.019,48.888c21.382-12.615,39.282-30.516,51.882-51.905
    C226.418,177.722,205.42,178.72,192.07,192.054z"/>
  <path fill="#7E7E7E" d="M63.579,63.579c13.342-13.357,14.331-34.364,3.014-48.879c-21.386,12.615-39.278,30.5-51.894,51.89
    C29.223,77.918,50.229,76.929,63.579,63.579z"/>
  <path fill="#7E7E7E" d="M191.99,63.459c13.35,13.35,34.348,14.332,48.863,3.01c-12.599-21.39-30.5-39.283-51.882-51.882
    C177.65,29.095,178.641,50.102,191.99,63.459z"/>
  <path fill="#7E7E7E" d="M63.511,191.918c-13.35-13.342-34.344-14.332-48.868-3.018c12.607,21.382,30.504,39.282,51.89,51.89
    C77.854,226.274,76.869,205.268,63.511,191.918z"/>
</g>
</svg>
