<?xml version="1.0" encoding="utf-8"?>
<!DOCTYPE svg PUBLIC "-//W3C//DTD SVG 1.1//EN" "http://www.w3.org/Graphics/SVG/1.1/DTD/svg11.dtd">
<svg version="1.1" xmlns="http://www.w3.org/2000/svg" xmlns:xlink="http://www.w3.org/1999/xlink" x="0px" y="0px" width="256px" height="256px" viewBox="0 0 256 256" enable-background="new 0 0 256 256" xml:space="preserve">
<g>
  <path fill="#172677" d="M0,256c0.5-1.5,1.7-3.9,2.9-5.4c2.3-3,6.1-6.2,11.3-9.6c8-5.2,15.4-8.6,24.9-11.1
    c13.8-3.7,28.4-4,41-4l0.7,0c16.8,0,52.7,2.1,78.9,3.7c13.8,0.8,24.6,1.5,28.4,1.5l0.7,0c1.1,0,3,0.1,5.2,0.1
    c16,0,21.5-2.5,23.9-3.9c2.7-1.5,5.5-3.7,5.3-5.3c-0.3-2.2-5.9-2.1-8-2.4c-8.4-1.4-15.6-4.7-20.8-8.3c-5.9-4.2-9.7-11.6-9.7-11.6
    l-3.9,2.6c-14.4,9.5-26.3,14-37.4,14c-0.6,0-1.2,0-1.7,0c-6.4-0.3-11.4-2.9-12.8-5.2l-2.6-4.3l-3.8,3.3c-5.1,4.4-12.2,5.7-15,6.1
    c-1.2,0.2-2.5,0.2-3.8,0.2c-6.5,0-12.4-2.2-16.6-6.1c-0.6-0.6-2.9-3.3-3.3-3.9l-2.7-3.9l-3.6,3.1c-1.3,1.1-5.2,3.6-6,4
    c-8.2,4.4-17.3,6.8-26.2,6.8c-8.1,0-15.8-2-22.3-5.7c-15.5-8.9-17.9-26.3-17.1-39.3c1-17.8,7.5-35.5,19.2-52.7
    c10.1-14.8,24-29,40.3-41c11.9-8.7,30-19.8,49.1-22.8c3.4-0.5,6.9-1,10.4-1c3.9,0,6.9,0.7,9,2c5.7,3.6,5.9,10.8,5.5,14.7
    c-1.5,14.4-14.9,31.9-29.2,31.9c-2.6,0-5-1-6.3-2.8c-1-1.4-1.3-3-0.9-4.8c1.2-4.7,5.7-6.3,12.8-8.3c0.6-0.2,1.1-0.3,1.7-0.5
    c11.4-3.3,13.3-10.4,12.8-15.8c-0.3-3.7-2.9-7.6-9.2-7.6c-5.9,0-13,3.5-13.8,3.8C91.7,74.2,81.2,87.1,71,100.8
    c-21.1,28.2-31,55.1-29.4,80.2c0.7,11,8.3,22.9,19.4,22.9c3.8,0,7.5-1.4,11.1-4c5.8-4.3,9.1-11,11.9-16.8c0.8-1.6,1.6-3.2,2.3-4.6
    c4.4-8.1,9.5-15.3,15.9-21.2c7-6.6,14.4-10.7,22.4-13.4c4.3-1.4,8.2-2,12.9-1.9c4.5,0.1,6.9,2.9,7.9,4.8c0.8-1.5,2-4.3,2.5-4.7
    c0.4-0.4,8.2-0.3,10.6-0.2c2,0.1,8.1,0.1,8.8,0.9c0.9,0.9-1.6,6.1-4.3,13.4c-1.3,3.4-3.1,7.5-5.1,12.5c-0.8,2-1.5,3.9-2.3,5.8
    c-6.1,15.7-10.2,26-3.4,29.5c1.3,0.7,2.8,1,4.4,1c4.9,0,9.8-3.3,13.3-5.7c0.4-0.3,0.8-0.5,1.2-0.8c4.2-2.7,6.5-4.4,8.7-6.6l1.4-1.4
    l-0.1-1.9c-1.2-17.4,1.3-36.3,6.5-49.4c7.3-18.2,18-34.7,30.9-47.6c6.5-6.5,22.8-18.3,31.7-18.5c7.6-0.2,5.4,13.2,4.8,16.3
    c-1.5,6.8-9.5,27.9-22.5,49.6c-4.4,7.3-14,20.5-20.3,29.2c-3,4.1-5.3,7.4-6.4,8.9l-0.6,0.9l-0.1,1.1c-0.9,10.3,4.5,20.9,10.2,26.7
    c5.3,5.5,11,7.5,16.4,9.4c1.9,0.7,3.8,1.3,5.8,2.2c1.7,0.7,3.8,1.9,4.2,3.5c0.4,1.6-0.6,4.1-2.9,6.9c-11.4,14.2-25.9,18.7-40,21.4
    c-8.1,1.6-17.9,2.3-30,2.3c-8.2,0-16.3-0.3-24.2-0.6c-3-0.1-5.9-0.2-8.8-0.3c-9-0.3-18.9-0.9-28.5-1.4c-8.4-0.5-17.1-1-25.1-1.3
    c-6.4-0.3-12.5-0.4-18.2-0.4c-15.6,0-29.1,0.9-40,2.8c-4.9,0.8-9.2,1.9-13.3,3c-1.2,0.3-2.4,0.6-3.6,0.9c-0.5,0.1-1.1,0.3-1.9,0.5
    C4.1,255.1,1.8,255.8,0,256L0,256z M137.1,150.2c-4.3,0.1-14.5,5.4-22.7,20.6c-1.9,3.5-7.8,18.2-4.6,25.6c1,2.2,2.7,3.7,4.9,4.3
    c0.6,0.1,1.2,0.2,1.7,0.2c7.2,0,12.3-10.1,17.2-21.4c0.4-0.9,0.7-1.7,1-2.3c1.3-2.8,6.6-15.1,7.7-19.8
    C143,154.4,143.3,150,137.1,150.2z M246.2,88.9c-1.7-0.9-6.2,2.4-6.2,2.4c-8.6,6.9-15.1,15.4-20.7,25.2
    c-14.8,25.9-13.4,46.2-13.4,46.2s7.7-8.8,9.5-11.7c2.5-3.9,11.8-17.1,17.1-26.3c5.6-9.9,12.1-23.7,13.7-28.4
    C246.2,96.3,248.8,90.3,246.2,88.9z"/>
</g>
</svg>
