<?xml version="1.0" encoding="utf-8"?>
<!DOCTYPE svg PUBLIC "-//W3C//DTD SVG 1.1//EN" "http://www.w3.org/Graphics/SVG/1.1/DTD/svg11.dtd">
<svg version="1.1" xmlns="http://www.w3.org/2000/svg" xmlns:xlink="http://www.w3.org/1999/xlink" x="0px" y="0px" width="256px"
   height="256px" viewBox="0 0 256 256" enable-background="new 0 0 256 256" xml:space="preserve">
<g>
  <path fill="#E75A4D" d="M234.994,35.393c11.534,0,20.972,9.438,20.972,20.972v6.08l-29.138,20.813l-99.195,68.331L28.438,82.564
    V213.67v6.938h-7.466C9.438,220.607,0,211.17,0,199.635V56.371c0-11.535,9.438-20.972,20.972-20.972l106.661,79.081
    l107.355-79.081L234.994,35.393z"/>
  <polygon fill="#E7E4D7" points="28.438,82.564 28.438,220.607 226.834,220.607 226.834,83.257 127.633,151.588"/>
  <polygon fill="#B8B7AE" points="28.438,220.607 127.633,151.588 127.185,151.271 28.438,219.09"/>
  <polygon fill="#B7B6AD" points="226.834,83.257 226.892,220.607 127.633,151.588"/>
  <path fill="#B2392F" d="M255.966,62.444L256,199.652c-0.5,15.25-7.108,20.693-29.108,20.949l-0.058-137.35l29.138-20.813
    L255.966,62.444z"/>
  <polygon fill="#F7F5ED" points="20.972,35.393 127.633,114.474 234.994,35.393"/>
</g>
</svg>
