<svg xmlns="http://www.w3.org/2000/svg" width="256" height="256" viewBox="0 0 256 256"><path fill="#54B848" d="M228.688 100.695c-12.094 0-22.322 7.849-25.921 18.724h-19.252c-2.243-14.708-10.216-27.551-21.56-36.183l9.29-16.067c11.663 3.13 24.428-1.744 30.765-12.706 7.543-13.064 3.064-29.774-9.994-37.317-13.078-7.549-29.787-3.077-37.323 10-6.044 10.467-4.355 23.252 3.26 31.818l-9.623 16.656c-6.311-2.457-13.156-3.801-20.34-3.801-7.72 0-15.086 1.556-21.788 4.375l-9.284-16.051c8.566-8.544 10.731-22.035 4.407-32.998-7.549-13.078-24.252-17.55-37.316-10-13.079 7.543-17.552 24.253-10.002 37.318 6.023 10.474 17.968 15.396 29.181 13.071l9.616 16.68c-10.686 8.593-18.156 21.025-20.327 35.205h-19.246c-3.593-10.875-13.835-18.724-25.928-18.724-15.073 0-27.303 12.231-27.303 27.31s12.23 27.316 27.304 27.316c12.667 0 23.287-8.619 26.377-20.295h18.58c1.858 14.825 9.467 27.851 20.543 36.756l-9.616 16.689c-11.213-2.32-23.157 2.608-29.181 13.078-7.55 13.065-3.077 29.768 10.001 37.304 13.064 7.55 29.768 3.077 37.316-10 6.324-10.946 4.159-24.461-4.394-32.981l9.283-16.058c6.702 2.816 14.056 4.374 21.775 4.374 7.184 0 14.029-1.355 20.34-3.801l9.623 16.65c-7.621 8.567-9.304 21.364-3.26 31.815 7.536 13.077 24.245 17.55 37.323 10 13.059-7.536 17.537-24.238 9.994-37.304-6.343-10.959-19.108-15.842-30.765-12.706l-9.29-16.077c11.748-8.918 19.857-22.368 21.781-37.74h18.587c3.097 11.676 13.703 20.295 26.364 20.295 15.092 0 27.315-12.237 27.315-27.316s-12.221-27.309-27.312-27.309m-81.363 60.786c-18.476 10.666-42.115 4.329-52.794-14.16-10.666-18.476-4.329-42.121 14.147-52.78 16.168-9.336 36.247-5.672 48.178 7.745l-21.905 12.647-19.584-5.235c-3.286-.893-6.669.867-7.869 3.971l22.642 39.26c3.312.508 6.533-1.539 7.406-4.812l5.255-19.598 21.905-12.647c5.652 17.042-1.226 36.274-17.381 45.609"/></svg>