<?xml version="1.0" encoding="utf-8"?>
<!DOCTYPE svg PUBLIC "-//W3C//DTD SVG 1.1//EN" "http://www.w3.org/Graphics/SVG/1.1/DTD/svg11.dtd">
<svg version="1.1" xmlns="http://www.w3.org/2000/svg" xmlns:xlink="http://www.w3.org/1999/xlink" x="0px" y="0px" width="256px"
   height="256px" viewBox="0 0 256 256" enable-background="new 0 0 256 256" xml:space="preserve">
<g>
  <path fill="#EF7D00" d="M128.002,255.928c-41.778,0-83.555-0.019-125.332,0.056c-2.098,0.004-2.668-0.295-2.666-2.57
    C0.083,169.857,0.084,86.304,0,2.749c-0.002-2.41,0.622-2.735,2.825-2.733c83.448,0.063,166.896,0.063,250.344,0.001
    c2.191-0.002,2.833,0.305,2.831,2.728c-0.086,83.555-0.084,167.109-0.006,250.664c0.002,2.267-0.554,2.58-2.661,2.576
    C211.556,255.909,169.779,255.928,128.002,255.928z M102.437,130.229c-0.198-6.296-0.064-12.562,1.276-18.756
    c4.818-22.263,26.283-27.543,40.95-21.53c6.143,2.519,9.862,7.978,14.136,12.67c4.721,5.183,10.029,9.125,17.209,10.147
    c6.803,0.968,13.635,0.766,20.41,0.322c5.163-0.34,10.401-1.307,14.792-4.54c2.692-1.982,3.925-4.473,3.368-7.994
    c-3.345-21.135-15.829-35.729-33.656-46.06c-12.921-7.489-27.586-9.297-42.188-10.166c-16.54-0.985-32.729,1.333-48.263,7.391
    c-18.468,7.202-31.744,20.12-40.251,37.771c-9.507,19.726-10.746,40.57-6.515,61.794c3.648,18.302,12.687,33.67,27.088,45.52
    c15.89,13.073,34.955,17.612,54.982,18.777c11.196,0.651,22.361-0.149,33.342-2.574c8.113-1.791,16.17-3.735,23.363-8.284
    c7.071-4.473,13.521-9.612,18.838-16.091c6.177-7.527,10.444-15.985,12.756-25.499c2.317-9.539-2.801-12.812-9.073-14.629
    c-8.45-2.448-17.09-2.194-25.699-1.801c-5.497,0.251-10.769,1.83-15.009,5.596c-3.342,2.968-6.562,6.093-9.395,9.572
    c-2.791,3.433-5.942,6.576-10.068,8.165c-14.805,5.703-33.805,0.774-39.911-17.397
    C102.454,145.294,102.249,137.805,102.437,130.229z"/>
  <path fill-rule="evenodd" clip-rule="evenodd" fill="#D3690C" d="M102.435,130.225c-0.186,7.58,0.019,15.069,2.484,22.408
    c6.106,18.172,25.106,23.101,39.911,17.397c4.126-1.589,7.277-4.732,10.068-8.165c2.832-3.479,6.053-6.604,9.395-9.572
    c4.24-3.766,9.512-5.345,15.009-5.596c8.609-0.394,17.249-0.647,25.699,1.801c6.272,1.816,11.391,5.09,9.073,14.629
    c-2.312,9.514-6.579,17.972-12.756,25.499c-5.317,6.479-11.767,11.618-18.838,16.091c-7.193,4.549-15.25,6.493-23.363,8.284
    c-10.981,2.425-22.146,3.226-33.342,2.574c-20.027-1.165-39.092-5.704-54.982-18.777c-14.401-11.85-23.44-27.218-27.088-45.52
    c-4.231-21.224-2.993-42.068,6.515-61.794c8.508-17.651,21.784-30.569,40.251-37.771c15.534-6.058,31.723-8.375,48.263-7.391
    c14.603,0.869,29.268,2.677,42.188,10.166c17.827,10.332,30.312,24.925,33.656,46.06c0.557,3.521-0.676,6.012-3.368,7.994
    c-4.391,3.232-9.629,4.2-14.792,4.54c-6.775,0.444-13.607,0.646-20.41-0.322c-7.18-1.022-12.488-4.964-17.209-10.147
    c-4.273-4.692-7.993-10.152-14.136-12.67c-14.667-6.013-36.132-0.733-40.95,21.53
    C102.372,117.667,102.239,123.933,102.435,130.225z M132.146,213.256c5.12,0.014,10.235-0.158,15.309-0.857
    c12.708-1.752,25.287-3.939,36.23-11.348c13.902-9.41,23.972-21.629,27.88-38.286c1.681-7.166,0.179-9.605-6.862-11.773
    c-5.876-1.81-11.951-1.781-18.021-2.126c-11.771-0.668-21.258,3.231-28.364,12.784c-1.517,2.038-3.405,3.812-5.218,5.613
    c-2.048,2.036-4.338,3.748-7.008,4.945c-17.133,7.683-37.735-0.786-43.315-18.636c-4.834-15.467-4.809-31.476-0.095-46.961
    c7.652-25.137,41.039-27.312,52.984-11.379c2.225,2.968,4.942,5.582,7.546,8.249c4.003,4.102,8.839,6.583,14.607,7.15
    c7.458,0.734,14.896,0.704,22.3-0.55c2.842-0.481,5.639-1.17,8.199-2.554c3.474-1.876,4.462-3.686,3.686-7.551
    c-4.718-23.471-19.124-39.103-40.988-47.141c-19.948-7.333-40.894-7.986-61.809-4.023C79.771,54.391,58.864,70.622,48.9,99.258
    c-6.96,20.001-6.966,40.486-0.268,60.597c7.942,23.847,23.917,40.085,47.97,48.032
    C108.139,211.699,120.02,213.315,132.146,213.256z"/>
  <path fill-rule="evenodd" clip-rule="evenodd" fill="#FEFDFD" d="M132.146,213.257c-12.126,0.059-24.007-1.558-35.544-5.369
    c-24.053-7.947-40.028-24.186-47.97-48.032c-6.698-20.111-6.692-40.596,0.268-60.597c9.964-28.636,30.87-44.867,60.306-50.446
    c20.916-3.963,41.861-3.31,61.809,4.023c21.864,8.038,36.271,23.67,40.988,47.141c0.776,3.865-0.212,5.674-3.686,7.551
    c-2.561,1.384-5.357,2.073-8.199,2.554c-7.404,1.254-14.842,1.284-22.3,0.55c-5.769-0.567-10.604-3.048-14.607-7.15
    c-2.604-2.667-5.321-5.281-7.546-8.249c-11.945-15.934-45.333-13.758-52.984,11.379c-4.714,15.485-4.739,31.494,0.095,46.961
    c5.58,17.85,26.182,26.318,43.315,18.636c2.67-1.197,4.96-2.909,7.008-4.945c1.812-1.801,3.701-3.575,5.218-5.613
    c7.106-9.553,16.593-13.452,28.364-12.784c6.07,0.345,12.146,0.316,18.021,2.126c7.041,2.168,8.543,4.607,6.862,11.773
    c-3.908,16.657-13.978,28.876-27.88,38.286c-10.943,7.408-23.522,9.596-36.23,11.348
    C142.382,213.098,137.267,213.27,132.146,213.257z"/>
</g>
</svg>
