<svg xmlns="http://www.w3.org/2000/svg" width="256" height="256" viewBox="0 0 256 256"><path fill="#172677" d="M0 256c.5-1.5 1.7-3.9 2.9-5.4 2.3-3 6.1-6.2 11.3-9.6 8-5.2 15.4-8.6 24.9-11.1 13.8-3.7 28.4-4 41-4h.7c16.8 0 52.7 2.1 78.9 3.7 13.8.8 24.6 1.5 28.4 1.5h.7c1.1 0 3 .1 5.2.1 16 0 21.5-2.5 23.9-3.9 2.7-1.5 5.5-3.7 5.3-5.3-.3-2.2-5.9-2.1-8-2.4-8.4-1.4-15.6-4.7-20.8-8.3-5.9-4.2-9.7-11.6-9.7-11.6l-3.9 2.6c-14.4 9.5-26.3 14-37.4 14h-1.7c-6.4-.3-11.4-2.9-12.8-5.2l-2.6-4.3-3.8 3.3c-5.1 4.4-12.2 5.7-15 6.1-1.2.2-2.5.2-3.8.2-6.5 0-12.4-2.2-16.6-6.1-.6-.6-2.9-3.3-3.3-3.9l-2.7-3.9-3.6 3.1c-1.3 1.1-5.2 3.6-6 4-8.2 4.4-17.3 6.8-26.2 6.8-8.1 0-15.8-2-22.3-5.7-15.5-8.9-17.9-26.3-17.1-39.3 1-17.8 7.5-35.5 19.2-52.7 10.1-14.8 24-29 40.3-41 11.9-8.7 30-19.8 49.1-22.8 3.4-.5 6.9-1 10.4-1 3.9 0 6.9.7 9 2 5.7 3.6 5.9 10.8 5.5 14.7-1.5 14.4-14.9 31.9-29.2 31.9-2.6 0-5-1-6.3-2.8-1-1.4-1.3-3-.9-4.8 1.2-4.7 5.7-6.3 12.8-8.3l1.7-.5c11.4-3.3 13.3-10.4 12.8-15.8-.3-3.7-2.9-7.6-9.2-7.6-5.9 0-13 3.5-13.8 3.8-15.6 7.7-26.1 20.6-36.3 34.3-21.1 28.2-31 55.1-29.4 80.2.7 11 8.3 22.9 19.4 22.9 3.8 0 7.5-1.4 11.1-4 5.8-4.3 9.1-11 11.9-16.8l2.3-4.6c4.4-8.1 9.5-15.3 15.9-21.2 7-6.6 14.4-10.7 22.4-13.4 4.3-1.4 8.2-2 12.9-1.9 4.5.1 6.9 2.9 7.9 4.8.8-1.5 2-4.3 2.5-4.7.4-.4 8.2-.3 10.6-.2 2 .1 8.1.1 8.8.9.9.9-1.6 6.1-4.3 13.4-1.3 3.4-3.1 7.5-5.1 12.5-.8 2-1.5 3.9-2.3 5.8-6.1 15.7-10.2 26-3.4 29.5 1.3.7 2.8 1 4.4 1 4.9 0 9.8-3.3 13.3-5.7l1.2-.8c4.2-2.7 6.5-4.4 8.7-6.6l1.4-1.4-.1-1.9c-1.2-17.4 1.3-36.3 6.5-49.4 7.3-18.2 18-34.7 30.9-47.6 6.5-6.5 22.8-18.3 31.7-18.5 7.6-.2 5.4 13.2 4.8 16.3-1.5 6.8-9.5 27.9-22.5 49.6-4.4 7.3-14 20.5-20.3 29.2-3 4.1-5.3 7.4-6.4 8.9l-.6.9-.1 1.1c-.9 10.3 4.5 20.9 10.2 26.7 5.3 5.5 11 7.5 16.4 9.4 1.9.7 3.8 1.3 5.8 2.2 1.7.7 3.8 1.9 4.2 3.5.4 1.6-.6 4.1-2.9 6.9-11.4 14.2-25.9 18.7-40 21.4-8.1 1.6-17.9 2.3-30 2.3-8.2 0-16.3-.3-24.2-.6-3-.1-5.9-.2-8.8-.3-9-.3-18.9-.9-28.5-1.4-8.4-.5-17.1-1-25.1-1.3-6.4-.3-12.5-.4-18.2-.4-15.6 0-29.1.9-40 2.8-4.9.8-9.2 1.9-13.3 3l-3.6.9c-.5.1-1.1.3-1.9.5-1.1.4-3.4 1.1-5.2 1.3zm137.1-105.8c-4.3.1-14.5 5.4-22.7 20.6-1.9 3.5-7.8 18.2-4.6 25.6 1 2.2 2.7 3.7 4.9 4.3.6.1 1.2.2 1.7.2 7.2 0 12.3-10.1 17.2-21.4.4-.9.7-1.7 1-2.3 1.3-2.8 6.6-15.1 7.7-19.8.7-3 1-7.4-5.2-7.2zm109.1-61.3c-1.7-.9-6.2 2.4-6.2 2.4-8.6 6.9-15.1 15.4-20.7 25.2-14.8 25.9-13.4 46.2-13.4 46.2s7.7-8.8 9.5-11.7c2.5-3.9 11.8-17.1 17.1-26.3 5.6-9.9 12.1-23.7 13.7-28.4 0 0 2.6-6 0-7.4z"/></svg>