<?xml version="1.0" encoding="utf-8"?>
<!DOCTYPE svg PUBLIC "-//W3C//DTD SVG 1.1//EN" "http://www.w3.org/Graphics/SVG/1.1/DTD/svg11.dtd">
<svg version="1.1" xmlns="http://www.w3.org/2000/svg" xmlns:xlink="http://www.w3.org/1999/xlink" x="0px" y="0px" width="256px"
   height="256px" viewBox="0 0 256 256" enable-background="new 0 0 256 256" xml:space="preserve">
<g>
  <path d="M157.428,176.323c-4.991,4.215-9.648,8.485-14.656,12.3c-8.753,6.679-18.703,10.507-29.676,11.839
    c-10.45,1.267-20.833,1.482-31.083-1.217c-19.78-5.217-32.995-20.616-35.866-41.094c-1.646-11.737-1.172-23.211,2.836-34.409
    c5.35-14.942,15.508-25.638,29.495-32.854c10.636-5.486,22.078-8.35,33.829-9.949c11.747-1.598,23.546-2.816,35.327-4.163
    c1.575-0.18,2.457-0.574,2.348-2.496c-0.343-5.95-0.027-11.972-0.808-17.852c-1.471-11.134-8.85-17.112-20.019-18.304
    c-6.458-0.69-12.718,0.272-18.532,3.333c-6.318,3.326-10.462,8.448-12.401,15.334c-0.357,1.267-0.618,2.572-1.087,3.796
    c-1.358,3.533-3.721,5.065-7.456,4.698c-6.956-0.685-13.903-1.473-20.853-2.22c-3.646-0.391-7.29-0.841-10.941-1.172
    c-5.061-0.459-7.543-3.829-6.518-8.779c2.097-10.114,6.088-19.349,12.671-27.358c4.636-5.641,10.212-10.22,16.542-13.849
    c11.017-6.317,22.956-9.746,35.538-10.913c6.098-0.564,12.256-1.198,18.35-0.934c14.516,0.626,28.592,3.401,41.326,10.896
    c13.301,7.828,21.33,19.444,23.226,34.743c1.101,8.849,1.328,17.839,1.411,26.768c0.195,21.358-0.06,42.72,0.152,64.078
    c0.075,7.632,2.921,14.563,7.37,20.783c1.936,2.703,3.969,5.34,5.886,8.057c2.321,3.29,2.951,7.256-1.446,10.804
    c-8.483,6.845-16.612,14.115-24.882,21.221c-4.316,3.708-8.074,3.513-12.394-0.184c-6.743-5.77-12.239-12.551-16.993-19.988
    C157.892,176.866,157.59,176.534,157.428,176.323z M149.938,115.291c0-2.757-0.061-5.514,0.023-8.268
    c0.044-1.359-0.424-1.793-1.774-1.781c-8.686,0.06-17.301,0.707-25.686,3.173c-8.131,2.391-15.425,6.179-20.002,13.641
    c-5.777,9.412-6.048,19.532-2.801,29.826c1.498,4.75,4.478,8.604,8.954,10.914c8.063,4.162,16.05,3.303,23.55-1.396
    c8.476-5.307,13.045-13.493,15.654-22.882C149.967,130.918,149.975,123.096,149.938,115.291z"/>
  <path fill="#F89723" d="M129.798,256c-17.909-0.352-33.364-2.047-48.584-5.795c-20.863-5.14-40.356-13.479-58.186-25.431
    c-7.414-4.969-14.233-10.824-21.323-16.275c-0.09-0.07-0.175-0.149-0.256-0.229c-1.057-1.065-2.042-2.225-0.928-3.745
    c1.091-1.486,2.646-1.249,4.041-0.552c2.358,1.179,4.627,2.534,6.954,3.775c13.197,7.034,26.957,12.725,41.216,17.21
    c14.188,4.46,28.653,7.688,43.397,9.682c13.901,1.878,27.863,2.78,41.87,2.281c13.635-0.486,27.18-2.031,40.582-4.749
    c16.334-3.312,32.245-7.992,47.637-14.4c0.635-0.263,1.287-0.511,1.959-0.652c1.926-0.418,4.104,0.543,4.875,2.093
    c0.754,1.522,0.301,3.69-1.36,4.893c-3.156,2.286-6.355,4.536-9.687,6.554c-10.545,6.382-21.767,11.316-33.469,15.147
    c-14.151,4.637-28.626,7.813-43.49,9.054C139.219,255.345,133.386,255.734,129.798,256z"/>
  <path fill="#F89723" d="M251.529,200.188c3.314,0.707,4.439,2.35,4.442,5.796c0.01,7.821-2.138,15.166-5.201,22.264
    c-2.547,5.904-6.048,11.186-10.894,15.491c-0.633,0.562-1.342,1.169-2.122,1.398c-0.731,0.213-1.861,0.24-2.33-0.184
    c-0.459-0.42-0.61-1.617-0.376-2.29c1.258-3.566,2.862-7.017,4.001-10.618c1.499-4.739,2.951-9.523,3.928-14.383
    c1.349-6.718-0.854-8.133-7.089-8.521c-5.912-0.373-11.888,0.129-17.829,0.37c-2.453,0.101-4.893,0.646-7.344,0.742
    c-1.008,0.044-2.488-0.25-2.962-0.938c-0.874-1.258,0.202-2.545,1.296-3.107c3.809-1.952,7.591-4.082,11.62-5.448
    c5.549-1.879,11.383-2.594,17.291-2.323C237.99,198.242,247.071,199.24,251.529,200.188z"/>
</g>
</svg>
