<svg xmlns="http://www.w3.org/2000/svg" width="72" height="96" viewBox="0 0 72 96"><path fill="#E4E4E4" d="M69.6 92.2h-66.3c-1.1 0-1.3-.3-1.2-1.3.1-2.5 0-5.1 0-7.6 1.8-1.5 4.2-1.8 5.9-3.3 1.3-1.2 2.9-2.1 4.4-3 .9-.5 1.8-.9 2.4-1.8l5.7-7.5c.2-.3.4-.5.3-.8-1.1-2.4-.4-5.5-2.8-7.4-.3-.3-.6-.7-.7-1.1-1-2.7-2-5.3-2.8-8-.7-2.2.1-3.9 2-4.9.4-.2.4-.4.3-.7-.9-3-.5-6-1-9-.9-5.8.5-10.8 4.3-15.2.2-.2.4-.5.3-.7-.2-.9.4-1.1 1-1.2.8-.2 1.5-.6 2.1-1.1.9-.6 1.7-1.4 2.7-1.6 3.6-.7 7.1-2.1 10.8-2.3 3.2-.2 6.4-.7 9.1 1.7.3.3.8.5 1.3.4.8-.1 1.4.2 2 .6 2.2 1.6 4.4 3.2 6.8 4.4.6.3 1.1.7 1.3 1.4.6 1.7 1.5 3.2 2.2 5 1.1 3.1.4 6.2 0 9.2-.5 3.3-1.1 6.6-1.2 10 0 .4 0 .8.3 1.1 1.6 1.5 1.3 3.3.5 5.1-.9 2-1.6 4.1-2.7 6-.5.9-.4 2.5-1.6 2.7-1.7.3-1.9 1.5-2.2 2.8-.4 1.3-.8 2.6-1.3 3.9-.5 1.5-1 3.1-1 4.7-.1 1.2.4 2 1.6 2.1 5.6.8 10.8 3.3 16.3 4.3 1 .2 1.2.7 1.2 1.7v11.4z"/><path stroke="#A9A9A9" stroke-width="3" stroke-miterlimit="10" d="M7.2 2.5h57.8c2.7 0 4.9 2.2 4.9 4.9v81.3c0 2.7-2.2 4.9-4.9 4.9h-57.8c-2.7 0-4.9-2.2-4.9-4.9v-81.3c0-2.7 2.2-4.9 4.9-4.9z" fill="none"/><path d="M8.9 37.1v-9.9h1.5l3.2 6.6v-6.6h1.5v9.9h-1.6l-3.2-6.4v6.4h-1.4zm7.6-3.6c0-.6.1-1.2.4-1.8.2-.6.6-1 1.1-1.3.5-.3 1-.5 1.5-.5.9 0 1.6.4 2.1 1.1s.8 1.6.8 2.7-.3 2-.8 2.7c-.6.7-1.3 1.1-2.1 1.1-.5 0-1-.1-1.5-.4-.5-.3-.8-.7-1.1-1.3-.3-.8-.4-1.5-.4-2.3zm1.5.1c0 .7.1 1.3.4 1.6.3.4.6.6 1 .6s.7-.2 1-.6c.3-.4.4-.9.4-1.6 0-.7-.1-1.2-.4-1.6-.3-.4-.6-.6-1-.6s-.7.2-1 .6c-.3.3-.4.9-.4 1.6zm8.3-1.3c0-1 .1-1.8.4-2.5.2-.5.4-1 .7-1.4.3-.4.7-.7 1-.9.5-.3 1.1-.4 1.7-.4 1.2 0 2.1.5 2.8 1.4.7.9 1 2.2 1 3.8 0 1.6-.3 2.8-1 3.7s-1.6 1.3-2.8 1.3c-1.2 0-2.1-.4-2.8-1.3-.7-.9-1-2.2-1-3.7zm1.6-.1c0 1.1.2 2 .6 2.5.4.6.9.9 1.6.9s1.2-.3 1.6-.9c.4-.6.6-1.4.6-2.6 0-1.1-.2-2-.6-2.5s-.9-.8-1.6-.8-1.2.3-1.6.8-.6 1.5-.6 2.6zm6.6-2.2h.8v-.5c0-.6.1-1 .2-1.3.1-.3.3-.5.6-.7.3-.2.6-.3 1-.3s.9.1 1.3.2l-.2 1.3c-.2-.1-.5-.1-.7-.1-.2 0-.4.1-.5.2-.1.1-.1.4-.1.7v.5h1.1v1.5h-1.1v5.7h-1.5v-5.7h-.8v-1.5zm3.7 0h.8v-.5c0-.6.1-1 .2-1.3.1-.3.3-.5.6-.7.3-.2.6-.3 1-.3s.9.1 1.3.2l-.2 1.3c-.2-.1-.5-.1-.7-.1-.2 0-.4.1-.5.2-.1.1-.1.4-.1.7v.5h1.1v1.5h-1.1v5.7h-1.6v-5.7h-.8v-1.5zm4.3-1v-1.7h1.5v1.7h-1.5zm0 8.1v-7.1h1.5v7.1h-1.5zm8.1-5l-1.5.3c0-.4-.2-.7-.3-.8-.2-.2-.4-.3-.7-.3-.4 0-.7.2-.9.5s-.3.9-.3 1.6c0 .8.1 1.4.3 1.8.2.4.5.5.9.5.3 0 .5-.1.7-.3.2-.2.3-.6.4-1.1l1.5.3c-.2.9-.4 1.5-.9 1.9s-1 .7-1.8.7-1.5-.3-2-1-.7-1.6-.7-2.7c0-1.2.2-2.1.7-2.8s1.2-1 2-1c.7 0 1.2.2 1.7.6.4.5.7 1 .9 1.8zm1.1-3.1v-1.7h1.5v1.7h-1.5zm0 8.1v-7.1h1.5v7.1h-1.5zm4.2-4.9l-1.4-.3c.2-.7.4-1.2.8-1.5s.9-.5 1.7-.5c.7 0 1.2.1 1.5.3.3.2.6.5.7.8s.2.9.2 1.7v2.2c0 .6 0 1.1.1 1.4 0 .3.1.6.3 1h-1.5c0-.1-.1-.3-.1-.6 0-.1 0-.2-.1-.2-.3.3-.5.5-.8.7-.3.2-.6.2-.9.2-.6 0-1.1-.2-1.4-.6-.3-.4-.5-.9-.5-1.5 0-.4.1-.8.2-1.1.2-.3.4-.6.7-.7.3-.2.7-.3 1.2-.4.7-.2 1.2-.3 1.5-.5v-.2c0-.4-.1-.6-.2-.8-.1-.2-.4-.2-.8-.2-.3 0-.5.1-.6.2-.4 0-.5.2-.6.6zm2 1.5c-.2.1-.5.2-.9.3s-.7.2-.8.3c-.2.2-.3.4-.3.7 0 .3.1.5.2.7.2.2.4.3.6.3.3 0 .5-.1.8-.3.2-.2.3-.4.4-.6 0-.2.1-.5.1-.9v-.5zm3 3.4v-9.9h1.5v9.9h-1.5zm-46.2 15.9v-9.9h2.6c1 0 1.6 0 1.9.1.5.1.8.5 1.1 1s.5 1.1.5 1.9c0 .6-.1 1.1-.3 1.5s-.4.7-.7 1c-.3.2-.5.4-.8.5-.4.1-.9.1-1.7.1h-1v3.8h-1.6zm1.6-8.2v2.8h.9c.6 0 1-.1 1.3-.2.2-.1.4-.3.5-.5.1-.2.2-.5.2-.8 0-.4-.1-.7-.3-.9-.2-.2-.4-.4-.6-.4-.2 0-.6-.1-1.1-.1h-.9zm7.2-1.7v3.6c.5-.7 1.1-1.1 1.7-1.1.3 0 .7.1.9.2.3.2.5.4.6.6l.3.8c.1.3.1.8.1 1.4v4.4h-1.5v-3.8c0-.7 0-1.2-.1-1.4-.1-.2-.2-.4-.3-.5-.1-.1-.3-.2-.5-.2-.3 0-.5.1-.7.2-.2.2-.3.4-.4.7-.1.3-.1.8-.1 1.4v3.6h-1.5v-9.9h1.5zm4.9 6.2c0-.6.1-1.2.4-1.8.2-.6.6-1 1.1-1.3.5-.3 1-.5 1.5-.5.9 0 1.6.4 2.1 1.1s.8 1.6.8 2.7-.3 2-.8 2.7c-.6.7-1.3 1.1-2.1 1.1-.5 0-1-.1-1.5-.4-.5-.3-.8-.7-1.1-1.3-.3-.8-.4-1.5-.4-2.3zm1.6.1c0 .7.1 1.3.4 1.6.3.4.6.6 1 .6s.7-.2 1-.6c.3-.4.4-.9.4-1.6 0-.7-.1-1.2-.4-1.6-.3-.4-.6-.6-1-.6s-.7.2-1 .6c-.3.3-.4.9-.4 1.6zm8.1-3.6v1.5h-1v3.9l.1.2c.1.1.2.1.3.1.1 0 .3-.1.6-.2l.1 1.5c-.4.2-.8.3-1.2.3-.3 0-.5-.1-.7-.2s-.4-.3-.5-.4c-.1-.2-.2-.4-.2-.7v-4.4h-.7v-1.5h.7v-1.4l1.5-1.1v2.5h1zm.7 3.5c0-.6.1-1.2.4-1.8.2-.6.6-1 1.1-1.3.5-.3 1-.5 1.5-.5.9 0 1.6.4 2.1 1.1s.8 1.6.8 2.7-.3 2-.8 2.7-1.3 1.1-2.1 1.1c-.5 0-1-.1-1.5-.4-.5-.3-.8-.7-1.1-1.3-.3-.8-.4-1.5-.4-2.3zm1.6.1c0 .7.1 1.3.4 1.6.3.4.6.6 1 .6s.7-.2 1-.6.4-.9.4-1.6c0-.7-.1-1.2-.4-1.6-.3-.4-.6-.6-1-.6s-.7.2-1 .6c-.3.3-.4.9-.4 1.6zm8.6-4.6v-1.7h1.5v1.7h-1.5zm0 8.2v-7.1h1.5v7.1h-1.5zm2.5-2.1l1.5-.3c.1.4.2.6.4.8s.5.3.8.3c.4 0 .7-.1.9-.3.1-.1.2-.3.2-.5 0-.1 0-.3-.1-.4-.1-.1-.2-.2-.5-.2-1.2-.3-2-.6-2.3-.9-.5-.4-.7-.9-.7-1.6 0-.6.2-1.1.6-1.6.4-.4 1-.6 1.8-.6s1.4.2 1.7.5.6.8.8 1.4l-1.4.3c-.1-.3-.2-.5-.3-.6-.2-.1-.4-.2-.7-.2-.4 0-.7.1-.9.2-.1.1-.2.2-.2.4 0 .1.1.2.2.3.1.1.6.3 1.4.5.8.2 1.4.5 1.7.8.3.3.5.8.5 1.4 0 .7-.2 1.2-.7 1.7s-1.1.7-1.9.7c-.8 0-1.4-.2-1.8-.6-.6-.3-.9-.8-1-1.5zm-32 17.9h-1.7l-.7-2.2h-3.1l-.7 2.2h-1.7l3.1-9.9h1.7l3.1 9.9zm-2.9-3.9l-1.1-3.7-1.1 3.7h2.2zm4.9 3.9l-2.3-7.1h1.6l1.1 3.6.3 1.2c.1-.3.1-.5.2-.6l.2-.6 1.1-3.6h1.6l-2.3 7.1h-1.5zm5.7-5l-1.4-.3c.2-.7.4-1.2.8-1.5.4-.3.9-.5 1.7-.5.7 0 1.2.1 1.5.3.3.2.6.5.7.8.1.3.2.9.2 1.7v2.2c0 .6 0 1.1.1 1.4 0 .3.1.6.3 1h-1.5c0-.1-.1-.3-.1-.6 0-.1 0-.2-.1-.2-.3.3-.5.5-.8.7-.3.2-.6.2-.9.2-.6 0-1.1-.2-1.4-.6-.3-.4-.5-.9-.5-1.5 0-.4.1-.8.2-1.1s.4-.6.6-.7.7-.3 1.2-.4c.7-.2 1.2-.3 1.5-.5v-.2c0-.4-.1-.6-.2-.8-.1-.2-.4-.2-.8-.2-.3 0-.5.1-.6.2-.3 0-.4.3-.5.6zm2 1.5c-.2.1-.5.2-.9.3-.4.1-.7.2-.8.3-.2.2-.3.4-.3.7 0 .3.1.5.2.7.2.2.4.3.6.3.3 0 .5-.1.8-.3.2-.2.3-.4.4-.6 0-.2.1-.5.1-.9v-.5zm3-4.6v-1.7h1.5v1.7h-1.5zm0 8.1v-7.1h1.5v7.1h-1.5zm3.1 0v-9.9h1.5v9.9h-1.5zm4.2-5l-1.4-.3c.2-.7.4-1.2.8-1.5.4-.3.9-.5 1.7-.5.7 0 1.2.1 1.5.3.3.2.6.5.7.8.1.3.2.9.2 1.7v2.2c0 .6 0 1.1.1 1.4 0 .3.1.6.3 1h-1.5c0-.1-.1-.3-.1-.6 0-.1 0-.2-.1-.2-.3.3-.5.5-.8.7s-.6.2-.9.2c-.6 0-1.1-.2-1.4-.6-.3-.4-.5-.9-.5-1.5 0-.4.1-.8.2-1.1s.4-.6.7-.7c.3-.2.7-.3 1.2-.4.7-.2 1.2-.3 1.5-.5v-.2c0-.4-.1-.6-.2-.8-.1-.2-.4-.2-.8-.2-.3 0-.5.1-.6.2-.4 0-.5.3-.6.6zm2 1.5c-.2.1-.5.2-.9.3-.4.1-.7.2-.8.3-.2.2-.3.4-.3.7 0 .3.1.5.2.7.2.2.4.3.6.3.3 0 .5-.1.8-.3.2-.2.3-.4.4-.6 0-.2.1-.5.1-.9v-.5zm2.9 3.5v-9.9h1.5v3.6c.5-.7 1-1 1.7-1s1.3.3 1.7.9c.5.6.7 1.5.7 2.7 0 1.2-.2 2.2-.7 2.8-.5.7-1 1-1.7 1-.3 0-.6-.1-1-.3-.3-.2-.6-.5-.8-.9v1h-1.4zm1.5-3.8c0 .7.1 1.3.3 1.6.3.5.6.8 1 .8.3 0 .6-.2.9-.5.2-.4.4-.9.4-1.7 0-.8-.1-1.4-.4-1.8-.2-.4-.5-.5-.9-.5s-.7.2-.9.5c-.3.4-.4.9-.4 1.6zm5.3 3.8v-9.9h1.5v9.9h-1.5zm6.4-2.3l1.5.3c-.2.7-.5 1.2-.9 1.6-.4.4-.9.5-1.6.5-1 0-1.7-.4-2.2-1.2-.4-.7-.6-1.5-.6-2.5 0-1.2.2-2.1.7-2.8.5-.7 1.1-1 1.9-1 .8 0 1.5.4 2 1.1.5.7.7 1.8.7 3.2h-3.8c0 .6.1 1 .4 1.3.2.3.5.5.9.5.2 0 .4-.1.6-.2.2-.2.3-.4.4-.8zm.1-1.9c0-.5-.1-1-.3-1.2-.2-.3-.5-.4-.8-.4-.3 0-.6.2-.8.5-.2.3-.3.7-.3 1.2h2.2z" fill="#424242"/></svg>